<svg id="Layer_1" data-name="Layer 1" xmlns="http://www.w3.org/2000/svg" viewBox="0 0 1023.47 613.8"><defs><style>.cls-1{fill:#666;opacity:0.25;}</style></defs><title>bg</title><path class="cls-1" d="M857.34,97.85a2.78,2.78,0,0,0-2.61,1.84h-7.19l-10-10h-27L794.42,106H599.67L583.45,89.75h-27l-10,10h-7.19a2.77,2.77,0,1,0,.17,1H547l10-10H583L599.26,107H794.83L811,90.75h26.12l10,10h7.43a2.79,2.79,0,1,0,2.78-2.84Z" transform="translate(0 0)"/><path class="cls-1" d="M909.53,132.5h-425L355,262.09v26.51l7.3,7.3v64.94l26.3,26.3a2.85,2.85,0,1,0,.8-.62l-26.09-26.09V295.48l-7.3-7.3V262.5l129-129H909.11l114.36,114.36v-1.41Z" transform="translate(0 0)"/><path class="cls-1" d="M1004.72,386.51a2.76,2.76,0,0,0-1.27-.32,2.82,2.82,0,1,0,2.07.93l18-18v-1.41Z" transform="translate(0 0)"/><path class="cls-1" d="M905.18,141H488.91L363.52,266.36V285.8l6.92,6.92v65.46l31,31v16.41h0a2.81,2.81,0,1,0,1,.2v-17l-31-31V292.31l-6.92-6.92V266.78L489.32,142H904.77l118.7,118.7v-1.41Z" transform="translate(0 0)"/><path class="cls-1" d="M1022.64,292.31v65.46l-31,31v17a2.77,2.77,0,1,0,1-.2h0V389.15l30.8-30.8V291.48Z" transform="translate(0 0)"/><path class="cls-1" d="M381.74,297.74l1.86,1.86a2.8,2.8,0,1,0,.71-.71l-1.56-1.56V288.1l-8.47-8.47v-9.16l114-114h50.43a2.77,2.77,0,0,0,5.37,0h22.06l5-5H823l5,5h22.06a2.77,2.77,0,0,0,5.37,0h50.43l114,114v9.16l-8.47,8.47v9.22l-1.56,1.56a2.8,2.8,0,1,0,.71.71l1.86-1.86v-9.22l8.47-8.47v-10L906.29,155.52H855.52a2.77,2.77,0,0,0-5.52,0H828.43l-5-5H570.66l-5,5H544.09a2.77,2.77,0,0,0-5.52,0H487.8L373.27,270.06v10l8.47,8.47Z" transform="translate(0 0)"/><path class="cls-1" d="M459.18,476.94a2.79,2.79,0,1,0,3.38-2.72V438.67l-9.26-9.26V343.15L414,303.81V249.42l48.62-48.62h90.62l10.39,10.39h38l35.82-35.82H756.68l35.82,35.82h38L840.9,200.8h90.62l48.62,48.62v54.39l-39.34,39.34v86.26l-9.26,9.26v35.54a2.81,2.81,0,1,0,1,0V439.09l9.26-9.26V343.57l39.34-39.34V249l-49.2-49.2H840.49L830.1,210.19H792.92l-35.82-35.82H637l-35.82,35.82H564L553.6,199.8H462.15L413,249v55.22l39.34,39.34v86.26l9.26,9.26v35.11A2.78,2.78,0,0,0,459.18,476.94Z" transform="translate(0 0)"/><path class="cls-1" d="M993.29,301.89l-45.85,45.85v41.5l18.29,18.29v33.35l-15.91,15.91a2.85,2.85,0,1,0,.61.8l16.3-16.3V407.11l-18.29-18.29V348.16l45.85-45.85v-14l7.57-7.57a2.8,2.8,0,1,0-.71-.71l-7.87,7.87Z" transform="translate(0 0)"/><path class="cls-1" d="M997.24,318.23l-13,13a2.76,2.76,0,0,0-1.28-.32,2.82,2.82,0,1,0,2.07.94l12.66-12.66h10.23l5,5v19.06l-28.46,28.46v17l-9.49,9.5v30.85a2.79,2.79,0,1,0,1,0V398.74l9.49-9.5v-17l28.46-28.46V323.84l-5.62-5.62Z" transform="translate(0 0)"/><path class="cls-1" d="M902,389.73h10.07a2.79,2.79,0,1,0,0-1h-9.65l-16.82-16.82V340.53a2.79,2.79,0,1,0-1,0v31.8Z" transform="translate(0 0)"/><path class="cls-1" d="M871,389.23l-7.68-7.68H744.12L697.06,334.5v0h0v0L650,381.56H530.76l-7.68,7.68,19.34,19.34v51.09L508.6,493.48a2.8,2.8,0,1,0,.68.73l34.14-34.14V408.16L524.5,389.23l6.68-6.68H650.39L697,335.9l46.66,46.66H862.92l6.68,6.68-18.92,18.92v51.92l34.14,34.14a2.76,2.76,0,0,0-.44,1.48,2.82,2.82,0,1,0,1.12-2.22l-33.82-33.82V408.57Z" transform="translate(0 0)"/><path class="cls-1" d="M714.29,315.8a2.79,2.79,0,1,0,3.29-2.74V299.68l-20.52-20.52v0h0v0l-20.52,20.52v13.37a2.79,2.79,0,1,0,1,0v-13L697,280.57l19.53,19.53v13A2.79,2.79,0,0,0,714.29,315.8Z" transform="translate(0 0)"/><path class="cls-1" d="M767.79,286.73h45a2.79,2.79,0,1,0,0-1H768.2l-37.65-37.65h-67l-37.65,37.65H581.27a2.79,2.79,0,1,0,0,1h45l37.65-37.65h66.19Z" transform="translate(0 0)"/><path class="cls-1" d="M912.06,300.06a2.79,2.79,0,1,0,3.29-2.74v-8.18l-18.79-18.79H764.32L735,241H659.11l-29.34,29.34H497.54l-18.79,18.79v8.18a2.79,2.79,0,1,0,1,0v-7.76l18.21-18.21H630.19L659.53,242h75l29.34,29.34H896.14l18.21,18.21v7.76A2.79,2.79,0,0,0,912.06,300.06Z" transform="translate(0 0)"/><path class="cls-1" d="M932.7,339.78v70.47a2.8,2.8,0,1,0,1-.07v-70l38.13-38.13V253.24l-43.46-43.46H842.18l-23,23H781.86L754,204.92H640.13l-27.9,27.9H574.94l-23-23H465.72l-43.46,43.46v48.82l38.13,38.13v70a2.78,2.78,0,1,0,1,.07V339.78l-38.13-38.13v-48l42.88-42.87h85.36l23,23h38.12l27.9-27.9h113l27.9,27.9h38.12l23-23H928l42.88,42.88v48Z" transform="translate(0 0)"/><path class="cls-1" d="M925.49,111.2a2.78,2.78,0,0,0-4.86-1.85h-87l-5.14-5.14a2.8,2.8,0,1,0-.71.71l5.43,5.43h86.86a2.73,2.73,0,0,0-.15.85A2.79,2.79,0,0,0,922.7,114a2.76,2.76,0,0,0,.88-.16l99.89,99.89v-1.41l-99-99A2.77,2.77,0,0,0,925.49,111.2Z" transform="translate(0 0)"/><path class="cls-1" d="M1008.86,424.61a2.85,2.85,0,1,0,.62.79l14-14V410Z" transform="translate(0 0)"/><path class="cls-1" d="M992.71,98.56v23.59l7.78,7.78a2.8,2.8,0,1,0,.71-.71l-7.49-7.49V98.15L978.52,83V0h-1V83.37Z" transform="translate(0 0)"/><polygon class="cls-1" points="1002.29 93.39 988.31 79.42 988.31 0 987.31 0 987.31 79.83 1001.29 93.81 1001.29 108.73 1023.47 130.91 1023.47 129.5 1002.29 108.31 1002.29 93.39"/><path class="cls-1" d="M1020.34,49.2a2.79,2.79,0,0,0,2.29,2.74v9.9l.84.84V46.44a2.74,2.74,0,0,0-.34,0A2.79,2.79,0,0,0,1020.34,49.2Z" transform="translate(0 0)"/><path class="cls-1" d="M1021.37,98.59a2.79,2.79,0,0,0-2.79-2.79,2.73,2.73,0,0,0-.55.06V93.43L995.47,70.87V0h-1V71.28L1017,93.85v2.43a2.79,2.79,0,0,0,1.55,5.11,2.75,2.75,0,0,0,1.4-.39l3.49,3.49v-1.41l-2.73-2.73A2.76,2.76,0,0,0,1021.37,98.59Z" transform="translate(0 0)"/><path class="cls-1" d="M763.88,4.41A2.78,2.78,0,0,0,766.17,0l0,0h-4.59a2.78,2.78,0,0,0,2.26,4.41Z" transform="translate(0 0)"/><circle class="cls-1" cx="835.12" cy="49.2" r="2.79"/><circle class="cls-1" cx="1007.37" cy="63.11" r="2.79"/><path class="cls-1" d="M1016.86,483.75a2.78,2.78,0,1,0,1-.16V461.2l5.62-5.62v-1.41l-6.62,6.62Z" transform="translate(0 0)"/><circle class="cls-1" cx="943.67" cy="51.49" r="2.79"/><path class="cls-1" d="M839,335a2.78,2.78,0,0,0-2.75,2.44H787.95L773.8,351.59a2.76,2.76,0,0,0-1.77-.65,2.79,2.79,0,1,0,2.79,2.79,2.76,2.76,0,0,0-.37-1.37l13.92-13.92h47.89A2.79,2.79,0,1,0,839,335Z" transform="translate(0 0)"/><circle class="cls-1" cx="803.68" cy="186.59" r="2.79"/><path class="cls-1" d="M939.71,559l11.3,11.3h45.21l9.3,9.3a2.85,2.85,0,1,0,.82-.6l-9.7-9.7H951.42l-10.72-10.72V482.21L995,428a2.76,2.76,0,0,0,1.63.53,2.8,2.8,0,1,0-2.32-1.25L939.71,481.8Z" transform="translate(0 0)"/><path class="cls-1" d="M1003.79,530a2.79,2.79,0,1,0,1,0v-5.61l18.68-18.68v-1.41L1003.79,524Z" transform="translate(0 0)"/><path class="cls-1" d="M989.32,498.67a2.79,2.79,0,0,0,2.29,2.74v8.9l-16,16a2.8,2.8,0,1,0,.71.71l16.28-16.28v-9.32a2.79,2.79,0,1,0-3.29-2.74Z" transform="translate(0 0)"/><path class="cls-1" d="M1006.3,469.27,995.55,480a2.8,2.8,0,1,0,.71.71l11-11v-9l16.17-16.17V443.1l-17.17,17.17Z" transform="translate(0 0)"/><path class="cls-1" d="M932.41,589a2.79,2.79,0,1,0,0,1h21l23.8,23.8h1.41L953.88,589Z" transform="translate(0 0)"/><path class="cls-1" d="M966.61,580.13H947.89l-15.25-15.25a2.8,2.8,0,1,0-.71.71l15.54,15.54h18.72l19,19H1015a2.79,2.79,0,1,0,0-1H985.63Z" transform="translate(0 0)"/><path class="cls-1" d="M990.83,465a2.78,2.78,0,0,0-2.29,4.37L973.88,484a2.83,2.83,0,1,0,.75.67L989.24,470a2.79,2.79,0,1,0,1.58-5.08Z" transform="translate(0 0)"/><path class="cls-1" d="M996.59,453.24a2.8,2.8,0,1,0,2.29,1.21l24.59-24.59v-1.41l-25.29,25.29A2.77,2.77,0,0,0,996.59,453.24Z" transform="translate(0 0)"/><path class="cls-1" d="M908,431.56l-5.87-5.87a2.8,2.8,0,1,0-.71.71L907,432V474l17.29,17.29V557l-10.91,10.91v26.24a2.77,2.77,0,1,0,1,0V568.3l10.91-10.91V490.9L908,473.61Z" transform="translate(0 0)"/><path class="cls-1" d="M831.94,403.25,820.49,391.8h-52.6l-15,15v57.76l16.32,16.32h13.52l34.16-34.16v-34l-9.6-9.6H779.11l-9.74,9.74v27.86l12.45,12.45a2.76,2.76,0,0,0-.63,1.74,2.79,2.79,0,1,0,2.79-2.79,2.76,2.76,0,0,0-1.4.39l-12.21-12.21v-27l9.15-9.15h27.39l9,9v33.13l-33.57,33.57h-12.7L753.92,464.1V407.17L768.3,392.8h51.78l10.86,10.87v41.92L773.56,503V607.81l-6,6H769l5.57-5.57V503.37L831.94,446Z" transform="translate(0 0)"/><path class="cls-1" d="M740,403.25l-42.94-42.94v0h0v0l-42.94,42.94V503.8L637.88,520V547l10,10v7.19a2.78,2.78,0,1,0,1-.17V556.5l-10-10V520.43l16.21-16.22V403.66l42-41.95,42,41.95V504.21l16.21,16.22v26.12l-10,10v7.43a2.81,2.81,0,1,0,1,.17v-7.19l10-10V520L740,503.8Z" transform="translate(0 0)"/><path class="cls-1" d="M897.61,529.32a2.79,2.79,0,1,0-1.59-5.08l-49.39-49.39a2.8,2.8,0,1,0-.71.71l49.39,49.39a2.79,2.79,0,0,0,2.29,4.37Z" transform="translate(0 0)"/><path class="cls-1" d="M924,399.49V337.27L958.24,303v-47l-34-34H847.75l-23,23H776.18L749.72,218.6H644.37l-26.46,26.46H569.3l-23-23H469.82l-34,34v47l34.22,34.22v62.22a2.77,2.77,0,1,0,1,0V336.85l-34.22-34.22V256.49l33.39-33.39h75.69l23,23h49.43l26.46-26.46H749.31l26.46,26.46H825.2l23-23h75.69l33.39,33.39v46.14L923,336.85v62.68a2.81,2.81,0,1,0,1,0Z" transform="translate(0 0)"/><path class="cls-1" d="M924.17,462.72V422.23l-60.34-60.34V340.53a2.79,2.79,0,1,0-1,0v21.78l60.34,60.34v40.07a2.79,2.79,0,1,0,1,0Z" transform="translate(0 0)"/><circle class="cls-1" cx="796.76" cy="544.5" r="2.79"/><path class="cls-1" d="M844.84,495.7a2.8,2.8,0,1,0-1.21,2.29l28.94,28.94V589.3l-24.5,24.5h1.41l24.09-24.09v-63.2l-29.23-29.23A2.77,2.77,0,0,0,844.84,495.7Z" transform="translate(0 0)"/><path class="cls-1" d="M840.17,403.66l6.56-6.56a2.8,2.8,0,1,0-.71-.71l-6.85,6.85v45.7l-56.82,56.82v108h1V506.18l56.82-56.82Z" transform="translate(0 0)"/><path class="cls-1" d="M746.12,535.55a2.79,2.79,0,1,0-5.08,1.58l-5.43,5.43V613.8h1V543l5.14-5.14a2.78,2.78,0,0,0,4.37-2.29Z" transform="translate(0 0)"/><path class="cls-1" d="M894.84,580.21V559.35l21.4-21.4V498.47l-40.19-40.19v-44.9a2.79,2.79,0,1,0-1,0V458.7l40.19,40.19v38.65l-21.4,21.4V580.3a2.79,2.79,0,1,0,1-.09Z" transform="translate(0 0)"/><path class="cls-1" d="M932.41,603.65a2.79,2.79,0,1,0,0,1h21l9.15,9.15h1.41l-10.15-10.15Z" transform="translate(0 0)"/><path class="cls-1" d="M865,537.63,852.36,525h-34a2.79,2.79,0,1,0,0,1h33.63L864,538v48.18L836.42,613.8h1.41L865,586.64Z" transform="translate(0 0)"/><path class="cls-1" d="M838.12,549.52a2.79,2.79,0,1,0-1,0v16l-19.57,19.57V613.8h1V585.47l19.57-19.57Z" transform="translate(0 0)"/><path class="cls-1" d="M474.89,54.28a2.78,2.78,0,0,0,1.08-.22l9.55,9.55H597.71L654.53,6.79h85l56.82,56.82H908.57l9.55-9.55a2.82,2.82,0,1,0-.85-.57l-9.12,9.12H796.8L740,5.79H654.11L597.29,62.61H485.93l-9.12-9.12a2.78,2.78,0,1,0-1.93.78Z" transform="translate(0 0)"/><path class="cls-1" d="M943.67,78.17a2.79,2.79,0,0,0-2.74,2.29h-33l-9.07-9.07H794L736.61,14H657.48L600.1,71.4H495.24l-9.07,9.07h-33a2.79,2.79,0,1,0,0,1h33.43l9.07-9.07H600.51L657.89,15H736.2L793.58,72.4H898.44l9.07,9.07h33.43a2.79,2.79,0,1,0,2.74-3.29Z" transform="translate(0 0)"/><path class="cls-1" d="M1023.23,385.16a2.79,2.79,0,0,0,0,5.58l.24,0v-5.54Z" transform="translate(0 0)"/><path class="cls-1" d="M915.72,118.94H478.37L341.56,255.74v39.93l7.67,7.67V367l19.34,19.34a2.8,2.8,0,1,0,.71-.71l-19-19V302.92l-7.67-7.67v-39.1L478.78,119.94H915.31L1023.47,228.1v-1.41Z" transform="translate(0 0)"/><path class="cls-1" d="M912.68,124.93H481.41L347.06,259.28v33.83l7.27,7.27v63l25.85,25.85V405.6a2.78,2.78,0,1,0,1,.07V388.83L355.34,363V300l-7.27-7.27v-33L481.83,125.93H912.26l111.21,111.21v-1.41Z" transform="translate(0 0)"/><path class="cls-1" d="M1012.9,388.83v16.84a2.8,2.8,0,1,0,1-.07V389.24l9.57-9.57v-1.41Z" transform="translate(0 0)"/><path class="cls-1" d="M549.41,183.8a2.79,2.79,0,1,0,1.58,5.08l14.65,14.65h33.88l39.66-39.66H754.91l39.66,39.66h33.88l14.65-14.65a2.8,2.8,0,1,0-.71-.71L828,202.53H795l-39.66-39.66H638.77l-39.66,39.66H566.06l-14.35-14.35a2.78,2.78,0,0,0-2.29-4.37Z" transform="translate(0 0)"/><path class="cls-1" d="M446.14,461.63a2.79,2.79,0,1,0-1.87-4.84l-15.91-15.91V407.53l18.29-18.29v-41.5L400.8,301.89v-14L392.93,280a2.8,2.8,0,1,0-.71.71l7.57,7.57v14l45.85,45.85v40.67l-18.29,18.29v34.18l16.3,16.3a2.75,2.75,0,0,0-.31,1.25A2.79,2.79,0,0,0,446.14,461.63Z" transform="translate(0 0)"/><path class="cls-1" d="M408.64,389.24l9.49,9.5v30.43a2.79,2.79,0,1,0,1,0V398.32l-9.49-9.5v-17l-28.46-28.46V324.26l5-5h10.23l12.66,12.66a2.85,2.85,0,1,0,.8-.62l-13-13H385.79l-5.62,5.62v19.89l28.46,28.46Z" transform="translate(0 0)"/><path class="cls-1" d="M479.24,392a2.79,2.79,0,0,0,2.74-2.29H492l17.4-17.4v-31.8a2.79,2.79,0,1,0-1,0v31.39l-16.82,16.82H482a2.79,2.79,0,1,0-2.74,3.29Z" transform="translate(0 0)"/><path class="cls-1" d="M452.35,297.27a2.79,2.79,0,0,0,0,5.58,2.75,2.75,0,0,0,1.36-.37l16.11,16.11H571.33l7.29,7.29h41.73l11.93,11.93H682.5l10.88-10.88v-25.3L697,298l3.66,3.66v25.3l10.88,10.88h50.22l11.93-11.93h41.73l7.29-7.29H924.27l16.11-16.11a2.75,2.75,0,0,0,1.36.37,2.79,2.79,0,1,0-2.79-2.79,2.76,2.76,0,0,0,.66,1.78l-15.75,15.75H822.35l-7.29,7.29H773.32L761.4,336.81H712l-10.3-10.3v-25.3l-4.65-4.65v0h0v0l-4.65,4.65v25.3l-10.3,10.3H632.69l-11.93-11.93H579l-7.29-7.29H470.23l-15.75-15.75a2.76,2.76,0,0,0,.66-1.78A2.79,2.79,0,0,0,452.35,297.27Z" transform="translate(0 0)"/><path class="cls-1" d="M537.23,237.7h12.45l16.25,16.25H621l26.68-26.68h98.63L773,253.95h55.11L844.4,237.7h12.45a2.78,2.78,0,1,0-.14-1H844l-16.25,16.25H773.46l-26.68-26.68H647.32l-26.68,26.68H566.35L550.1,236.7H537.38a2.8,2.8,0,1,0-.14,1Z" transform="translate(0 0)"/><path class="cls-1" d="M567.92,99.84a2.78,2.78,0,0,0-2.29,4.37l-5.14,5.14h-87a2.78,2.78,0,1,0-3.86,4L330.73,252.21v47.52l8.33,8.33v71.8L384.6,425.4a2.75,2.75,0,0,0-.33,1.29,2.82,2.82,0,1,0,1-2.08l-45.17-45.17v-71.8l-8.33-8.33V252.62L470.51,113.83a2.76,2.76,0,0,0,.88.16,2.79,2.79,0,0,0,2.79-2.79,2.73,2.73,0,0,0-.15-.85H560.9l5.43-5.43a2.79,2.79,0,1,0,1.58-5.08Z" transform="translate(0 0)"/><path class="cls-1" d="M400.38,98.15v23.59l-7.49,7.49a2.8,2.8,0,1,0,.71.71l7.78-7.78V98.56l15.19-15.19V0h-1V83Z" transform="translate(0 0)"/><path class="cls-1" d="M391.8,93.39v14.92l-46.5,46.5v60.53L318.66,242v36.08a2.79,2.79,0,1,0,1,0V242.4l26.64-26.64V155.22l46.5-46.5V93.8l14-14V0h-1V79.42Z" transform="translate(0 0)"/><path class="cls-1" d="M326.21,305a2.78,2.78,0,0,0-1.91.76l-20.81-20.81v-51l23.19-23.19a2.76,2.76,0,0,0,1.16.26,2.8,2.8,0,1,0-2-.85l-23.36,23.36v51.86l21.22,21.22a2.76,2.76,0,0,0-.29,1.21,2.79,2.79,0,1,0,2.79-2.79Z" transform="translate(0 0)"/><path class="cls-1" d="M371.46,61.84v-9.9a2.79,2.79,0,1,0-1,0v9.49l-61,61H156.52L131.6,97.54V34l-9.78-9.78a2.8,2.8,0,1,0-.71.71l9.49,9.49V98l25.51,25.51H309.84Z" transform="translate(0 0)"/><path class="cls-1" d="M201.93,68.79h48.12a2.79,2.79,0,1,0,0-1h-47.7L184.23,49.67V0h-1V50.09Z" transform="translate(0 0)"/><path class="cls-1" d="M376.05,93.43v2.42a2.73,2.73,0,0,0-.55-.06,2.79,2.79,0,0,0-2.79,2.79,2.76,2.76,0,0,0,.63,1.74l-40.94,40.94v38l-39.62,39.62v93.4L318,337.52v36.63l15.3,15.3v8.89a2.81,2.81,0,1,0,1,0V389L319,373.73V337.1l-25.22-25.22V219.31l39.62-39.62v-38L374.1,101a2.75,2.75,0,0,0,1.4.39,2.79,2.79,0,0,0,1.55-5.11V93.85l22.56-22.56V0h-1V70.87Z" transform="translate(0 0)"/><path class="cls-1" d="M313.71,2.91a2.77,2.77,0,0,0,1.58-.5l12.31,12.31v41.6l-6.86,6.86a2.8,2.8,0,1,0,.71.71l7.15-7.15V14.31L316,1.7a2.77,2.77,0,0,0,.5-1.58s0-.08,0-.12h-5.55s0,.08,0,.12A2.79,2.79,0,0,0,313.71,2.91Z" transform="translate(0 0)"/><path class="cls-1" d="M267.17,2.91a2.77,2.77,0,0,0,1.58-.5l9.66,9.66h29.24l6.49,6.49V36a2.79,2.79,0,1,0,1,0V18.14l-7.08-7.08H278.83L269.46,1.7A2.77,2.77,0,0,0,270,.12S270,0,270,0H264.4s0,.08,0,.12A2.79,2.79,0,0,0,267.17,2.91Z" transform="translate(0 0)"/><path class="cls-1" d="M254.88,26.19h20.32l10.92,10.92a2.8,2.8,0,1,0,.71-.71L275.61,25.19H255.29L240,9.91V0h-1V10.32Z" transform="translate(0 0)"/><path class="cls-1" d="M220.6,44.4a2.76,2.76,0,0,0-.43,1.48A2.79,2.79,0,1,0,223,43.09a2.76,2.76,0,0,0-1.68.58L202.19,24.58V0h-1V25Z" transform="translate(0 0)"/><path class="cls-1" d="M234.52,30.37,218.46,14.31V8.06a2.79,2.79,0,1,0-1,0v6.66L234.1,31.37h29.64l6.85,6.85V49.67L261,59.26a2.75,2.75,0,0,0-1.33-.35,2.79,2.79,0,1,0,2.79,2.79,2.76,2.76,0,0,0-.68-1.81l9.81-9.81V37.8l-7.44-7.44Z" transform="translate(0 0)"/><path class="cls-1" d="M205.64,60.3h28.65l12.13-12.13a2.8,2.8,0,1,0-.71-.71L233.88,59.3H206.05L191.28,44.53V0h-1V44.94Z" transform="translate(0 0)"/><path class="cls-1" d="M107.57,77V99.52l30.16,30.16H262.25l12.93,12.93h7a2.79,2.79,0,1,0,0-1H275.6l-12.93-12.93H138.15L108.57,99.11V76.55L83.69,51.67V0h-1V52.09Z" transform="translate(0 0)"/><path class="cls-1" d="M268.25,282.65l5.65,5.65v27L297.64,339v29.49a2.79,2.79,0,1,0,1,0v-29.9L274.9,314.86v-27l-5.65-5.65V215.46l23.33-23.33V176.42a2.79,2.79,0,1,0-1,0v15.3l-23.33,23.33Z" transform="translate(0 0)"/><path class="cls-1" d="M229.48,394.32a2.79,2.79,0,0,0-2.74,2.29h-24.3L194.85,389V365.54L227.43,333V270.19l-14-14v-51l30.68-30.68V171.6a2.79,2.79,0,1,0-1,0v2.45L212.4,204.73v51.84l14,14v61.95l-32.58,32.58v24.31l8.17,8.17h24.72a2.79,2.79,0,1,0,2.74-3.29Z" transform="translate(0 0)"/><path class="cls-1" d="M210.18,310.5a2.79,2.79,0,1,0-1,0v24.55l-30,30v34.29h1V365.45l30-30Z" transform="translate(0 0)"/><path class="cls-1" d="M111.79,347.66a2.79,2.79,0,1,0-1.58-5.08L93.93,326.3H84.61a2.79,2.79,0,1,0,0,1h8.9l16,16a2.78,2.78,0,0,0,2.29,4.37Z" transform="translate(0 0)"/><path class="cls-1" d="M627.42,1.62A2.79,2.79,0,1,0,632.47,0h-4.59l0,0A2.77,2.77,0,0,0,627.42,1.62Z" transform="translate(0 0)"/><circle class="cls-1" cx="558.97" cy="49.2" r="2.79"/><circle class="cls-1" cx="386.72" cy="63.11" r="2.79"/><path class="cls-1" d="M348.85,68.19a2.79,2.79,0,0,0,2.32-4.33l5-5V24.69l4.86-4.86a2.78,2.78,0,1,0,1.66-5,2.79,2.79,0,0,0-2.79,2.79,2.76,2.76,0,0,0,.45,1.5l-5.18,5.18V58.41l-4.73,4.73a2.76,2.76,0,0,0-1.62-.53,2.79,2.79,0,1,0,0,5.58Z" transform="translate(0 0)"/><path class="cls-1" d="M147.11,83.81l23.44,23.44H296L330.22,73V61.81l10.15-10.15a2.75,2.75,0,0,0,1.29.33,2.82,2.82,0,1,0-2.08-1L329.22,61.39V72.6l-33.65,33.65H171L148.11,83.39V5.11L143,0h-1.41l5.53,5.53Z" transform="translate(0 0)"/><path class="cls-1" d="M139.15,18.35v71.5l23.61,23.61H301.29L339.78,75a2.76,2.76,0,0,0,1.73.62,2.79,2.79,0,1,0-2.79-2.79,2.76,2.76,0,0,0,.4,1.41l-38.24,38.24H163.18l-23-23V17.94L127,4.82H103.32a2.79,2.79,0,1,0,0,1h23.3Z" transform="translate(0 0)"/><path class="cls-1" d="M343.3,37.13a2.79,2.79,0,1,0,1,0V5.27L349.57,0h-1.41L343.3,4.86Z" transform="translate(0 0)"/><path class="cls-1" d="M235.73,236.4l17,17v26.81l-6,6V308l29.18,29.18v66.3l25.52,25.41h42.47l32.34,32.34v22.4a2.8,2.8,0,1,0,1,.16v-23l-32.93-32.93H301.84L276.91,403v-66.3l-29.18-29.18V286.62l6-6V253l-17-17V224.32L260,201V141.59l-7-7H133.23L82.54,83.86a2.8,2.8,0,1,0-.71.71l51,51H252.58L259,142V200.6l-23.3,23.3Z" transform="translate(0 0)"/><path class="cls-1" d="M257.94,289.85a2.79,2.79,0,1,0,3.29-2.74V212l15.67-15.67v-4.54a2.79,2.79,0,1,0-1,0v4.13l-15.67,15.67v75.56A2.79,2.79,0,0,0,257.94,289.85Z" transform="translate(0 0)"/><circle class="cls-1" cx="248.16" cy="231.7" r="2.79"/><path class="cls-1" d="M198,75.87h67.81l6.65-6.65V61.59L282.91,51.1a2.78,2.78,0,1,0-.55-.86L271.43,61.17V68.8l-6.06,6.06h-67L177.81,54.29V0h-1V54.7Z" transform="translate(0 0)"/><path class="cls-1" d="M182.49,100H286.25l26-26a2.76,2.76,0,0,0,1.42.4,2.82,2.82,0,1,0-2.18-1.06L285.84,99H182.91l-29.3-29.3V0h-1V70.1Z" transform="translate(0 0)"/><path class="cls-1" d="M193.4,84.4H271.8l11-11a2.86,2.86,0,1,0-.52-.9L271.39,83.4H193.81L169.34,58.93V0h-1V59.35Z" transform="translate(0 0)"/><path class="cls-1" d="M187.95,92h94.89L303.3,71.57V59.89l9.21-9.21a2.78,2.78,0,1,0,1.2-5.29,2.78,2.78,0,0,0-2,4.7l-9.39,9.39V71.16L282.42,91H188.36L161.62,64.29V0h-1V64.71Z" transform="translate(0 0)"/><circle class="cls-1" cx="450.42" cy="51.49" r="2.79"/><path class="cls-1" d="M465.23,272.93a2.8,2.8,0,1,0,.71.71l10.79-10.79H626.3l28.21-28.21h85.06l28.21,28.21H917.37l10.79,10.79a2.8,2.8,0,1,0,.71-.71l-11.08-11.08H768.2L740,233.64H654.1l-28.21,28.21H476.31Z" transform="translate(0 0)"/><path class="cls-1" d="M622.06,356.52a2.79,2.79,0,0,0,0-5.58,2.76,2.76,0,0,0-1.77.65l-14.15-14.15H557.89a2.77,2.77,0,1,0,0,1h47.89l13.92,13.92a2.76,2.76,0,0,0-.37,1.37A2.79,2.79,0,0,0,622.06,356.52Z" transform="translate(0 0)"/><circle class="cls-1" cx="253.4" cy="332.54" r="2.79"/><path class="cls-1" d="M362.81,467.75a2.79,2.79,0,0,0-5.53-.5H331.33l-61.56-61.56-17.71-17.21H240.14a2.79,2.79,0,0,0-2.24-2.24V263.71a2.79,2.79,0,1,0-1,0V386.25a2.79,2.79,0,1,0,3.24,3.24h11.52l17.41,16.92,61.85,61.85h26.36a2.79,2.79,0,0,0,5.53-.5Z" transform="translate(0 0)"/><circle class="cls-1" cx="590.41" cy="186.59" r="2.79"/><path class="cls-1" d="M160.25,497a2.8,2.8,0,1,0-1.21,2.29L209.74,550V613.8h1V549.61l-51-51A2.77,2.77,0,0,0,160.25,497Z" transform="translate(0 0)"/><path class="cls-1" d="M397.5,428.49a2.76,2.76,0,0,0,1.63-.53l54.26,54.26v76.35l-10.72,10.72H397.46l-9.7,9.7a2.75,2.75,0,0,0-1.21-.29,2.81,2.81,0,1,0,2,.89l9.3-9.3h45.21l11.3-11.3V481.8l-54.56-54.56a2.79,2.79,0,1,0-2.32,1.25Z" transform="translate(0 0)"/><path class="cls-1" d="M389.3,524.38V530a2.79,2.79,0,1,0,1,0v-6l-26.09-26.09V479.68a2.79,2.79,0,1,0-1,0v18.6Z" transform="translate(0 0)"/><path class="cls-1" d="M420,531.38a2.79,2.79,0,1,0-1.58-5.08l-16-16v-8.9a2.79,2.79,0,1,0-1,0v9.32L417.76,527a2.78,2.78,0,0,0,2.29,4.37Z" transform="translate(0 0)"/><path class="cls-1" d="M286.22,576.27V467.54L247.8,429.12H234.5a2.79,2.79,0,1,0,0,1h12.88L285.22,468V576.27a2.79,2.79,0,1,0,1,0Z" transform="translate(0 0)"/><path class="cls-1" d="M347.62,420.11h-44l-14.4-14.4V358.31a2.79,2.79,0,1,0-1,0v47.8l15,15h44l39.58,39.58v9l11,11a2.8,2.8,0,1,0,.71-.71l-10.74-10.74v-9Z" transform="translate(0 0)"/><path class="cls-1" d="M109.6,547.4l-9.49-9.49a2.8,2.8,0,1,0-.71.71l9.78,9.78h63.53l24.92,24.92V613.8h1v-40.9L173.14,547.4Z" transform="translate(0 0)"/><path class="cls-1" d="M93.53,556,81,543.42V520.13a2.79,2.79,0,1,0-1,0v23.71L93.12,557h71.5l23,23V613.8h1V579.56L165,556Z" transform="translate(0 0)"/><path class="cls-1" d="M464.41,586.72a2.79,2.79,0,0,0-2.74,2.29H440.21l-24.8,24.8h1.41l23.8-23.8h21a2.79,2.79,0,1,0,2.74-3.29Z" transform="translate(0 0)"/><path class="cls-1" d="M446.62,581.13l15.54-15.54a2.8,2.8,0,1,0-.71-.71L446.2,580.13H427.48l-19,19H379.09a2.79,2.79,0,1,0,0,1h29.78l19-19Z" transform="translate(0 0)"/><circle class="cls-1" cx="332.85" cy="445.6" r="2.79"/><circle class="cls-1" cx="272.38" cy="468.98" r="2.79"/><path class="cls-1" d="M171.63,385.77V358.83L196.47,334V288.14l5.75-5.75a2.84,2.84,0,1,0-.58-.84l-6.17,6.17v45.85l-24.84,24.84v27.35a2.79,2.79,0,1,0,1,0Z" transform="translate(0 0)"/><path class="cls-1" d="M403.26,465a2.79,2.79,0,1,0,1.58,5.08l14.62,14.62a2.76,2.76,0,0,0-.61,1.71,2.82,2.82,0,1,0,1.35-2.38l-14.66-14.66a2.78,2.78,0,0,0-2.29-4.37Z" transform="translate(0 0)"/><path class="cls-1" d="M307.53,411.72l-6.86-6.86V393a2.79,2.79,0,1,0-1,0v12.3l7.45,7.45h46.37l41.72,41.72a2.8,2.8,0,1,0,.71-.71l-42-42Z" transform="translate(0 0)"/><path class="cls-1" d="M480.7,594.13V567.88L469.79,557V491.32L487.08,474V432l5.58-5.58a2.77,2.77,0,0,0,1.58.5,2.8,2.8,0,1,0-2.29-1.21l-5.87,5.87v42.05L468.79,490.9v66.49L479.7,568.3v25.87a2.81,2.81,0,1,0,1,0Z" transform="translate(0 0)"/><path class="cls-1" d="M620.53,503l-57.38-57.38V403.66L574,392.8h51.78l14.38,14.38V464.1l-15.74,15.74h-12.7l-33.57-33.57V413.14l9-9h27.39l9.15,9.15v27l-12.21,12.21a2.76,2.76,0,0,0-1.4-.39,2.79,2.79,0,1,0,2.79,2.79,2.76,2.76,0,0,0-.63-1.74l12.45-12.45V412.86L615,403.12H586.76l-9.6,9.6v34l34.16,34.16h13.52l16.32-16.32V406.76l-15-15H573.6l-11.45,11.45V446l57.38,57.38V608.23l5.57,5.57h1.41l-6-6Z" transform="translate(0 0)"/><polygon class="cls-1" points="697.06 373.26 697.04 373.27 697.03 373.26 697.03 373.28 667.07 403.25 667.07 613.8 668.07 613.8 668.07 403.66 697.04 374.68 726.02 403.66 726.02 613.8 727.02 613.8 727.02 403.25 697.06 373.28 697.06 373.26"/><polygon class="cls-1" points="697.06 386.25 697.04 386.27 697.03 386.25 697.03 386.28 673.07 410.25 673.07 613.8 674.07 613.8 674.07 410.66 697.04 387.68 720.02 410.66 720.02 613.8 721.02 613.8 721.02 410.25 697.06 386.28 697.06 386.25"/><polygon class="cls-1" points="697.06 393.82 697.04 393.84 697.03 393.82 697.03 393.85 680.63 410.25 680.63 613.8 681.63 613.8 681.63 410.66 697.04 395.25 712.46 410.66 712.46 613.8 713.46 613.8 713.46 410.25 697.06 393.85 697.06 393.82"/><polygon class="cls-1" points="697.06 402.3 697.04 402.31 697.03 402.3 697.03 402.33 689.11 410.25 689.11 613.8 690.11 613.8 690.11 410.66 697.04 403.73 703.98 410.66 703.98 613.8 704.98 613.8 704.98 410.25 697.06 402.33 697.06 402.3"/><path class="cls-1" d="M496.48,523.74a2.8,2.8,0,1,0,2.29,1.21l49.39-49.39a2.8,2.8,0,1,0-.71-.71l-49.39,49.39A2.77,2.77,0,0,0,496.48,523.74Z" transform="translate(0 0)"/><path class="cls-1" d="M473.21,465.46a2.79,2.79,0,0,0-2.29-2.74V422.65l60.34-60.34V340.53a2.79,2.79,0,1,0-1,0v21.37l-60.34,60.34v40.49a2.79,2.79,0,1,0,3.29,2.74Z" transform="translate(0 0)"/><circle class="cls-1" cx="597.33" cy="544.5" r="2.79"/><path class="cls-1" d="M521.52,526.93,550.46,498a2.8,2.8,0,1,0-.71-.71l-29.23,29.23v63.2l24.09,24.09H546l-24.5-24.5Z" transform="translate(0 0)"/><path class="cls-1" d="M554.92,403.25l-6.85-6.85a2.8,2.8,0,1,0-.71.71l6.56,6.56v45.7l56.82,56.82V613.8h1v-108l-56.82-56.82Z" transform="translate(0 0)"/><path class="cls-1" d="M653.55,535.55a2.8,2.8,0,1,0-1.21,2.29l5.14,5.14V613.8h1V542.57l-5.43-5.43A2.77,2.77,0,0,0,653.55,535.55Z" transform="translate(0 0)"/><path class="cls-1" d="M500.25,580.3V558.94l-21.4-21.4V498.89L519,458.7V413.38a2.79,2.79,0,1,0-1,0v44.9l-40.19,40.19V538l21.4,21.4v20.86a2.78,2.78,0,1,0,1,.09Z" transform="translate(0 0)"/><path class="cls-1" d="M464.41,601.36a2.79,2.79,0,0,0-2.74,2.29H440.31L430.16,613.8h1.41l9.15-9.15h21a2.79,2.79,0,1,0,2.74-3.29Z" transform="translate(0 0)"/><path class="cls-1" d="M578.51,522.71a2.79,2.79,0,0,0-2.74,2.29h-34L529.1,537.63v49l27.16,27.16h1.41L530.1,586.22V538L542.15,526h33.63a2.79,2.79,0,1,0,2.74-3.29Z" transform="translate(0 0)"/><path class="cls-1" d="M557,549.52a2.79,2.79,0,1,0-1,0V565.9l19.57,19.57V613.8h1V585.06L557,565.49Z" transform="translate(0 0)"/><path class="cls-1" d="M146.71,389.06l17.62-17.62V352.72l19-19V303.91a2.79,2.79,0,1,0-1,0v29.37l-19,19V371l-17,17H0v1Z" transform="translate(0 0)"/><path class="cls-1" d="M1.91,73V180.08l43.63,43.63H170.93L179.2,232v32.49a2.79,2.79,0,1,0,1,0v-32.9l-8.86-8.86H46l-43-43V72.6L0,69.69V71.1Z" transform="translate(0 0)"/><path class="cls-1" d="M60.47,73.27V89.85l54.76,54.75h122l6.83,6.83v5a2.79,2.79,0,1,0,1,0V151l-7.42-7.42h-122L61.47,89.43V73.69L75.14,60V0h-1V59.6Z" transform="translate(0 0)"/><path class="cls-1" d="M46,72.6v35l55.82,55.82h89.41l13.94,13.94a2.8,2.8,0,1,0,.71-.71l-14.23-14.23H102.27L47,107.23V73L64.75,55.29V0h-1V54.88Z" transform="translate(0 0)"/><path class="cls-1" d="M36.42,64.4v45.51l61.43,61.43H181c.93.49,6.61,6.34,11.61,11.74v12.64a2.79,2.79,0,1,0,1,0v-13l-.13-.14c-7.5-8.1-11.67-12.2-12.41-12.2H98.26L37.42,109.49V64.81L52.14,50.09V0h-1V49.67Z" transform="translate(0 0)"/><path class="cls-1" d="M29,61.5v53.14l69.87,69.87h73.64a2.79,2.79,0,1,0,0-1H99.32L30,114.22V61.91L45.17,46.78V0h-1V46.37Z" transform="translate(0 0)"/><path class="cls-1" d="M20.36,54.23v76.32L71.83,182a2.84,2.84,0,1,0,.7-.71L21.36,130.14V54.65L37.11,38.9V0h-1V38.49Z" transform="translate(0 0)"/><path class="cls-1" d="M11.21,36.92V138.65l58.51,58.51H172.64l8,8v9.48l5.83,5.83a2.8,2.8,0,1,0,.71-.71l-5.53-5.53v-9.48l-8.57-8.57H70.13L12.21,138.24V36.51L6.75,31.05V0h-1V31.47Z" transform="translate(0 0)"/><path class="cls-1" d="M50.45,256.15V282.1a2.79,2.79,0,1,0,1,0V255.74L0,204.29v1.41Z" transform="translate(0 0)"/><path class="cls-1" d="M11.05,226.66v42.47L44,302.05h23a2.78,2.78,0,1,0-.16-1H44.4L12.05,268.71V226.24L0,214.19v1.41Z" transform="translate(0 0)"/><path class="cls-1" d="M3.31,228.44v44l40.17,40.17h9l10.74,10.74a2.8,2.8,0,1,0,.71-.71l-11-11h-9L4.31,272V228L0,223.72v1.41Z" transform="translate(0 0)"/><path class="cls-1" d="M36.94,320.73a2.8,2.8,0,1,0,.71-.71L0,282.38v1.41Z" transform="translate(0 0)"/><path class="cls-1" d="M162.21,207.75a2.79,2.79,0,0,0-2.74,2.29H51.16L13.32,172.21V159.32a2.79,2.79,0,1,0-1,0v13.3L50.74,211H159.47a2.79,2.79,0,1,0,2.74-3.29Z" transform="translate(0 0)"/><path class="cls-1" d="M164.68,308.58a2.79,2.79,0,0,0-2.79,2.79,2.76,2.76,0,0,0,.29,1.21l-9.7,9.7v45.21L141.76,378.2H65.41L11.15,323.94a2.77,2.77,0,1,0-.72.7L65,379.2h77.18l11.3-11.3V322.69l9.3-9.3a2.79,2.79,0,1,0,1.9-4.82Z" transform="translate(0 0)"/><circle class="cls-1" cx="28.8" cy="257.67" r="2.79"/><circle class="cls-1" cx="52.18" cy="197.2" r="2.79"/><path class="cls-1" d="M76.18,270.58a2.8,2.8,0,1,0,.71-.71L0,193v1.41Z" transform="translate(0 0)"/><path class="cls-1" d="M107.16,315.12h6a2.79,2.79,0,1,0,0-1h-5.61L81.48,288H62.88a2.79,2.79,0,1,0,0,1H81.07Z" transform="translate(0 0)"/><path class="cls-1" d="M50.95,330.87a2.77,2.77,0,0,0,1.58-.5L67.19,345a2.76,2.76,0,0,0-.41,1.43,2.79,2.79,0,1,0,2.79-2.79,2.76,2.76,0,0,0-1.71.61L53.24,329.67a2.79,2.79,0,1,0-2.29,1.21Z" transform="translate(0 0)"/><path class="cls-1" d="M69.25,569.41,53.58,553.74V520.13a2.79,2.79,0,1,0-1,0v34l16.25,16.25h76l29.3,29.3V613.8h1V599.29l-29.89-29.89Z" transform="translate(0 0)"/><path class="cls-1" d="M59.18,577.42,40.27,558.5V542.4a2.79,2.79,0,1,0-1,0v16.52l19.5,19.5h80.7l26.75,26.75v8.64h1v-9.05l-27.33-27.33Z" transform="translate(0 0)"/><path class="cls-1" d="M52,585.14l-27-27v-38a2.79,2.79,0,1,0-1,0v38.45l27.57,27.57h82.57l24.47,24.47v3.19h1v-3.6l-25.05-25.05Z" transform="translate(0 0)"/><path class="cls-1" d="M42.38,593.61,10.94,562.18V541.4a2.79,2.79,0,1,0-1,0v21.19l32,32h87.51l19.19,19.19h1.41l-20.19-20.19Z" transform="translate(0 0)"/><polygon class="cls-1" points="32.83 601.03 124.85 601.03 137.62 613.8 139.04 613.8 125.27 600.03 33.24 600.03 0 566.79 0 568.21 32.83 601.03"/><polygon class="cls-1" points="119.71 608.08 125.43 613.8 126.85 613.8 120.12 607.08 0 607.08 0 608.08 119.71 608.08"/><polygon class="cls-1" points="126.85 500.49 151.73 525.37 174.29 525.37 203.87 554.95 203.87 613.8 204.87 613.8 204.87 554.53 174.7 524.37 152.15 524.37 127.27 499.49 0 499.49 0 500.49 126.85 500.49"/><path class="cls-1" d="M139.69,411.62l8.09,8.09H254.84l43,43V588.15l8.86,8.86h32.9a2.79,2.79,0,1,0,0-1H307.15l-8.27-8.27V462.34l-43.63-43.63H148.19l-8.09-8.09H0v1Z" transform="translate(0 0)"/><polygon class="cls-1" points="135.19 491.94 148.87 478.27 164.61 478.27 218.78 532.44 218.78 613.8 219.78 613.8 219.78 532.02 165.03 477.27 148.45 477.27 134.78 490.94 0 490.94 0 491.94 135.19 491.94"/><polygon class="cls-1" points="130.47 481.55 148.19 463.83 182.41 463.83 237.65 519.07 237.65 608.48 242.97 613.8 244.38 613.8 238.65 608.06 238.65 518.66 182.82 462.83 147.78 462.83 130.06 480.55 0 480.55 0 481.55 130.47 481.55"/><path class="cls-1" d="M125.27,468.94,140,454.22h44.68l60.84,60.84v82.82c0,.73,4.1,4.91,12.2,12.41l.14.13h13a2.79,2.79,0,1,0,0-1H258.25c-5.4-5-11.25-10.68-11.74-11.61V514.65l-61.43-61.43H139.58l-14.73,14.73H0v1Z" transform="translate(0 0)"/><path class="cls-1" d="M259.69,589.35V515.71l-69.87-69.87H136.68L121.55,461H41.8l-7.65-7.65a2.85,2.85,0,1,0-.81.6l8,8H122l15.13-15.13H189.4l69.28,69.29v73.23a2.79,2.79,0,1,0,1,0Z" transform="translate(0 0)"/><path class="cls-1" d="M37,439.46l14.45,14.46h62.67l15.75-15.75h75.49l51.16,51.16a2.77,2.77,0,1,0,.71-.7l-51.46-51.46H129.41l-15.75,15.75H51.83L37.37,438.46H0v1Z" transform="translate(0 0)"/><path class="cls-1" d="M106.23,423.55l5.45,5.45H213.42l57.93,57.93V589.86l8.57,8.57h9.48l5.53,5.54a2.8,2.8,0,1,0,.71-.71l-5.83-5.83h-9.48l-8-8V486.52L213.83,428H112.1l-5.45-5.45H0v1Z" transform="translate(0 0)"/><path class="cls-1" d="M146.48,402.74l6.35,6.35H260.45l84.6,84.6a2.8,2.8,0,1,0,.71-.71l-84.89-84.89H153.25l-6.35-6.35H0v1Z" transform="translate(0 0)"/><path class="cls-1" d="M80.71,563.92l-12-12V539.07a2.79,2.79,0,1,0-1,0v13.25l12.6,12.6h78.28l22.85,22.85v26h1V587.35L159,563.92Z" transform="translate(0 0)"/></svg>