<svg id="Layer_1" data-name="Layer 1" xmlns="http://www.w3.org/2000/svg" viewBox="0 0 26 26"><defs><style>.cls-1{fill:#858e98;}.cls-2{fill:#f9f9f9;}</style></defs><title>garage_</title><path id="Mic-Icon" class="cls-1" d="M26,13A13,13,0,1,1,13,0,13,13,0,0,1,26,13Z"/><path id="Mail-Icon" class="cls-2" d="M13.4,15.52l7.09-7.27H6.11c1.2,1.32,3.72,4,6.93,7.27A.26.26,0,0,0,13.4,15.52ZM5.22,8.83v8.84l4.23-4.34C7.21,11,5.93,9.65,5.22,8.83ZM17,13.34l4.22,4.33V9Zm-2.86,2.93a1.27,1.27,0,0,1-1.83,0l-2.12-2.18L5.64,18.75H20.8l-4.55-4.66Z"/></svg>