<svg id="Layer_1" data-name="Layer 1" xmlns="http://www.w3.org/2000/svg" viewBox="0 0 26 26"><defs><style>.cls-1{fill:#858e98;}.cls-2{fill:#f9f9f9;}</style></defs><title>garage_</title><path id="Mic-Icon" class="cls-1" d="M26,13A13,13,0,1,1,13,0,13,13,0,0,1,26,13Z"/><path id="_Path_" data-name="&lt;Path&gt;" class="cls-2" d="M8.77,18.1l-.85.25c-.79.25-1.57.53-2.34.82a11.57,11.57,0,0,0,14.85.23c-1-.46-2.47-.93-2.47-.93a6.14,6.14,0,0,1-2.24-.7c-.55-.24-.46-2.55-.46-2.55.85-.11.8-2.65.8-2.65.6.37.65-.4.65-.4a6.51,6.51,0,0,1,.19-.83c.58-1.79-.27-1.36-.27-1.36a9.05,9.05,0,0,0,.27-3.24,2.5,2.5,0,0,0-1.1-1.8,3.37,3.37,0,0,0-.7-.36c-.34-.13-.68-.3-1-.39A5.21,5.21,0,0,0,13.21,4a6.5,6.5,0,0,0-1,0,.57.57,0,0,0-.44.18,3.37,3.37,0,0,1-.52.17l-.46.24a12.85,12.85,0,0,0-1.08.76A3.07,3.07,0,0,0,8.9,6a2.17,2.17,0,0,0-.32.85,3,3,0,0,0,0,1.08c.08.4.19,2.17.19,2.17-.63-.12-.28.78-.28.78A5.44,5.44,0,0,1,8.75,12c.16,1.33.82.8.82.8-.11,2.36.71,2.48.71,2.48a5.94,5.94,0,0,1-.16,2.17C9.92,17.92,9.24,18,8.77,18.1Z"/></svg>