<svg id="Layer_1" data-name="Layer 1" xmlns="http://www.w3.org/2000/svg" viewBox="0 0 26 26"><defs><style>.cls-1{fill:#858e98;}.cls-2{fill:#f9f9f9;}</style></defs><title>garage_</title><path id="Mic-Icon" class="cls-1" d="M26,13A13,13,0,1,1,13,0,13,13,0,0,1,26,13Z"/><path id="Mobile-Icon" class="cls-2" d="M13,5.92c4.42,0,8,2.94,8,6.57s-3.58,6.57-8,6.57a20.05,20.05,0,0,1-2.2-.28c-.49.8-3.16,1.28-3.42,1.31s-.46-.2-.24-.34a4.77,4.77,0,0,0,1.25-1.33.83.83,0,0,0-.24-1C6.24,16.25,5,14.62,5,12.49,5,8.86,8.58,5.92,13,5.92Z"/></svg>