<svg id="Layer_1" data-name="Layer 1" xmlns="http://www.w3.org/2000/svg" xmlns:xlink="http://www.w3.org/1999/xlink" viewBox="0 0 151.24 29.08"><defs><style>.cls-1,.cls-2{fill:none;}.cls-1{clip-rule:evenodd;}.cls-3{fill:#fff;}.cls-4{clip-path:url(#clip-path);}.cls-5{clip-path:url(#clip-path-2);}.cls-6{fill:#321f82;}</style><clipPath id="clip-path" transform="translate(2.05 2.76)"><path id="SVGID" class="cls-1" d="M16.93,7.52l-.49.34A4.4,4.4,0,0,0,15,9.58a4.16,4.16,0,0,0-.36,1.36,5,5,0,0,0,.13,1.71,4.31,4.31,0,0,0,1.29,2.11,4.8,4.8,0,0,0,1.38.91h0l-.18.5a11.79,11.79,0,0,1-1.76,3.09,8.36,8.36,0,0,1-.86,1,3.5,3.5,0,0,1-.92.65,2.43,2.43,0,0,1-1.45.2,6.2,6.2,0,0,1-1.32-.4,5.12,5.12,0,0,0-1.34-.35,4.09,4.09,0,0,0-1.32.08,7.26,7.26,0,0,0-1.14.37,5.93,5.93,0,0,1-1.1.32,2.19,2.19,0,0,1-1.54-.28A4.56,4.56,0,0,1,3.45,20,13,13,0,0,1,.51,14.53a11.8,11.8,0,0,1-.32-1.69,9.71,9.71,0,0,1,0-1.74,6.67,6.67,0,0,1,.7-2.65,5.4,5.4,0,0,1,1.6-1.91,5.07,5.07,0,0,1,2.27-1,4.21,4.21,0,0,1,.89-.05,4.08,4.08,0,0,1,1,.18l1.08.36c.36.12.71.25,1.08.34a1.08,1.08,0,0,0,.61-.06l1.51-.51a7.45,7.45,0,0,1,1.24-.32,4.23,4.23,0,0,1,1.17,0,6.8,6.8,0,0,1,1.08.21,4.65,4.65,0,0,1,2.57,1.8Z"/></clipPath><clipPath id="clip-path-2" transform="translate(2.05 2.76)"><path id="SVGID-2" data-name="SVGID" class="cls-2" d="M9.11,5A2.87,2.87,0,0,1,8.49,5a3.36,3.36,0,0,1-1.2-.52A5.32,5.32,0,0,1,6,3.16,4.1,4.1,0,0,1,5.12.49a4,4,0,0,1,1,.26A4.63,4.63,0,0,1,8,2,4.43,4.43,0,0,1,9.11,4.65,2.86,2.86,0,0,1,9.11,5Z"/></clipPath></defs><title>macgarage_logo_white</title><path class="cls-3" d="M43.33,21.39V5.19h-.05l-7,16.16h-1l-7-16.16h0v16.2h-1V3.11h1.11l7.38,17h.08l7.36-17h1.14V21.39Z" transform="translate(2.05 2.76)"/><path class="cls-3" d="M47,17.72c0-2.33,1.67-3.66,4.88-3.9l4.67-.34V12.26c0-2.38-1.44-3.79-3.9-3.79s-3.85,1.18-4.18,3.24h-1c.24-2.52,2.27-4.14,5.14-4.14s4.86,1.77,4.86,4.62v9.19h-.95V18.45h0a5.23,5.23,0,0,1-5,3.12C48.84,21.57,47,20,47,17.72Zm9.55-1.38v-2L52,14.64c-2.61.19-4,1.25-4,3.08s1.53,3,3.66,3A4.64,4.64,0,0,0,56.54,16.33Z" transform="translate(2.05 2.76)"/><path class="cls-3" d="M70.24,11.85a4.32,4.32,0,0,0-4.47-3.38c-3.06,0-5,2.38-5,6.1s2,6.1,5,6.1a4.24,4.24,0,0,0,4.45-3.28h1a5.17,5.17,0,0,1-5.43,4.17c-3.66,0-6-2.7-6-7s2.36-7,6-7a5.27,5.27,0,0,1,5.45,4.28Z" transform="translate(2.05 2.76)"/><path class="cls-3" d="M81.18,21.65c-4.76,0-8-3.84-8-9.51s3.19-9.3,8-9.3a7.07,7.07,0,0,1,7.26,5.53h-1a6.16,6.16,0,0,0-6.23-4.6c-4.23,0-7,3.29-7,8.35s2.81,8.59,7,8.59c3.93,0,6.37-2.47,6.37-6.41V13.26H81.18v-.91h7.37v1.81C88.55,18.82,85.76,21.65,81.18,21.65Z" transform="translate(2.05 2.76)"/><path class="cls-3" d="M90.43,17.72c0-2.33,1.67-3.66,4.88-3.9l4.67-.34V12.26c0-2.38-1.44-3.79-3.9-3.79s-3.85,1.18-4.18,3.24h-1c.24-2.52,2.27-4.14,5.14-4.14S101,9.34,101,12.19v9.19H100V18.45h0a5.23,5.23,0,0,1-5,3.12C92.28,21.57,90.43,20,90.43,17.72ZM100,16.33v-2l-4.55.34c-2.61.19-4,1.25-4,3.08s1.53,3,3.66,3A4.64,4.64,0,0,0,100,16.33Z" transform="translate(2.05 2.76)"/><path class="cls-3" d="M103.88,7.75h.92v2.7h0a3.62,3.62,0,0,1,3.66-2.88,3.71,3.71,0,0,1,1.27.23v1a3.3,3.3,0,0,0-1.42-.28c-2.14,0-3.48,1.84-3.48,4.41v8.47h-1Z" transform="translate(2.05 2.76)"/><path class="cls-3" d="M110.44,17.72c0-2.33,1.67-3.66,4.88-3.9l4.67-.34V12.26c0-2.38-1.44-3.79-3.9-3.79s-3.85,1.18-4.18,3.24h-1c.24-2.52,2.27-4.14,5.14-4.14S121,9.34,121,12.19v9.19H120V18.45h0a5.23,5.23,0,0,1-5,3.12C112.29,21.57,110.44,20,110.44,17.72ZM120,16.33v-2l-4.55.34c-2.61.19-4,1.25-4,3.08s1.53,3,3.66,3A4.64,4.64,0,0,0,120,16.33Z" transform="translate(2.05 2.76)"/><path class="cls-3" d="M124,22.83h1c.46,1.47,2.05,2.6,4.41,2.6,2.85,0,4.65-1.66,4.65-4.15V17.75h0A5.21,5.21,0,0,1,129,21.54c-3.43,0-5.76-2.82-5.76-7s2.34-7,5.78-7a5.28,5.28,0,0,1,5.1,3.83h0V7.75h.92V21.24c0,3.05-2.2,5.08-5.69,5.08C126.44,26.32,124.38,24.76,124,22.83Zm10.07-8.27c0-3.6-2-6.09-5-6.09s-4.88,2.47-4.88,6.09,2,6.08,4.88,6.08S134.07,18.15,134.07,14.56Z" transform="translate(2.05 2.76)"/><path class="cls-3" d="M149,17.58c-.44,2.31-2.54,4-5.56,4-3.7,0-6.08-2.6-6.08-7,0-4.23,2.38-7,6-7s5.83,2.62,5.83,6.59v.57h-10.8v.05c0,3.72,2,5.9,5.09,5.9,2.5,0,4.15-1.32,4.55-3.1Zm-10.63-3.69h9.79c0-3.23-2-5.43-4.84-5.43S138.54,10.64,138.39,13.89Z" transform="translate(2.05 2.76)"/><g class="cls-4"><path class="cls-3" d="M9.39,4V14.8c0,.11.18.19.18.19H18c.24,0,.23-.18.23-.18L18.21,4c0-.21-.23-.21-.23-.21H9.58A.19.19,0,0,0,9.39,4Zm3.79,6.71h0v-.14h0V4.17h4.68l0,10.43h-.2v0l-.15,0V14.6l-4.37,0Zm-3.41,4V4.19h1.74a.53.53,0,0,0,.5.31.4.4,0,0,0,.44-.31h.37V14.62h-.34s0-.33-.47-.32-.49.33-.49.33Z" transform="translate(2.05 2.76)"/><path class="cls-3" d="M15.19,10.58a.18.18,0,0,0,0,0,.2.2,0,0,0-.1-.17h1.74v.21Z" transform="translate(2.05 2.76)"/><polygon class="cls-3" points="19.15 13.34 18.97 13.34 18.96 13.13 19.15 13.13 19.15 13.34"/><path class="cls-3" d="M14.79,10.54a.22.22,0,0,0,0,0h-1V14h3.4v-3.4h-.06v-.21h.29V14.2H13.63V10.36h1.27A.2.2,0,0,0,14.79,10.54Z" transform="translate(2.05 2.76)"/><path class="cls-3" d="M12.32,5h-2V6.42h2Zm-.21,1.22H10.54v-1h1.57Z" transform="translate(2.05 2.76)"/><path class="cls-3" d="M12.32,6.54h-2V8h2Zm-.21,1.22H10.54v-1h1.57Z" transform="translate(2.05 2.76)"/><path class="cls-3" d="M12.32,8.09h-2V9.52h2Zm-.21,1.22H10.54v-1h1.57Z" transform="translate(2.05 2.76)"/><path class="cls-3" d="M12.32,9.61h-2V11h2Zm-.21,1.22H10.54v-1h1.57Z" transform="translate(2.05 2.76)"/><path class="cls-3" d="M12.32,11.17h-2V12.6h2Zm-.21,1.22H10.54v-1h1.57Z" transform="translate(2.05 2.76)"/><path class="cls-3" d="M12.32,12.7h-2v1.43h2Zm-.21,1.22H10.54v-1h1.57Z" transform="translate(2.05 2.76)"/><polygon class="cls-3" points="19.75 17.38 19.6 17.42 19.6 17.36 19.75 17.36 19.75 17.38"/><polygon class="cls-3" points="18.77 11.17 18.91 11.17 19.71 12.13 19.75 17.36 19.6 17.36 19.59 12.16 18.77 11.17"/><path class="cls-3" d="M17.1,10.64v-.06h.08v.12A.19.19,0,0,0,17.1,10.64Z" transform="translate(2.05 2.76)"/><polygon class="cls-3" points="17.76 10.95 17.76 10.96 17.75 10.96 17.76 10.95"/><polygon class="cls-3" points="19.13 12.54 17.85 11.17 17.96 11.17 19.2 12.5 19.21 12.51 19.23 13.13 19.15 13.13 19.13 12.54"/><polygon class="cls-3" points="19.15 13.34 19.15 13.13 19.23 13.13 19.23 13.34 19.15 13.34"/><polygon class="cls-3" points="18.94 12.61 18.95 12.62 18.96 13.13 18.88 13.13 18.87 12.65 17.55 11.17 17.65 11.17 18.94 12.61"/><path class="cls-3" d="M16.85,10.73h0v-.15h.08v.08A.2.2,0,0,0,16.85,10.73Z" transform="translate(2.05 2.76)"/><polygon class="cls-3" points="18.97 13.34 18.89 13.34 18.88 13.13 18.96 13.13 18.97 13.34"/><polygon class="cls-3" points="15.23 13.3 15.24 13.29 15.24 13.44 15.24 13.44 15.23 13.3"/><path class="cls-3" d="M14.8,8.19h-.07l0,0Z" transform="translate(2.05 2.76)"/><polygon class="cls-3" points="16.2 12.37 16.19 11.5 16.55 11.17 16.67 11.17 16.27 11.54 16.28 12.41 15.24 13.44 15.24 13.29 16.2 12.37"/><path class="cls-3" d="M15,10.34a.2.2,0,0,1,.1,0h-.2A.2.2,0,0,1,15,10.34Z" transform="translate(2.05 2.76)"/><path class="cls-3" d="M15,10.74a.2.2,0,0,1-.2-.16h.39A.2.2,0,0,1,15,10.74Z" transform="translate(2.05 2.76)"/><path class="cls-3" d="M15.19,10.54a.18.18,0,0,1,0,0H14.8a.22.22,0,0,1,0,0,.2.2,0,0,1,.1-.17h.2A.2.2,0,0,1,15.19,10.54Z" transform="translate(2.05 2.76)"/><circle class="cls-3" cx="12.07" cy="10.97" r="0.17"/><circle class="cls-3" cx="12.07" cy="11.46" r="0.17"/><circle class="cls-3" cx="12.07" cy="13.66" r="0.17"/><circle class="cls-3" cx="12.07" cy="14.15" r="0.17"/><circle class="cls-3" cx="12.07" cy="15.57" r="0.17"/><path class="cls-3" d="M17.18,10.73v0a.2.2,0,0,1,0,.13.2.2,0,0,1-.4,0,.2.2,0,0,1,0-.09h.07v-.07a.2.2,0,0,1,.11,0h.07v.09Z" transform="translate(2.05 2.76)"/><path class="cls-3" d="M17.18,10.7v0H17.1v-.09A.19.19,0,0,1,17.18,10.7Z" transform="translate(2.05 2.76)"/><path class="cls-3" d="M16.85,10.73a.2.2,0,0,1,.07-.07v.07Z" transform="translate(2.05 2.76)"/><path class="cls-3" d="M16.6,12.26a1.08,1.08,0,1,0-1.08,1.08A1.08,1.08,0,0,0,16.6,12.26Zm-.34,0a.74.74,0,1,1-.74-.74A.74.74,0,0,1,16.27,12.26Z" transform="translate(2.05 2.76)"/><polygon class="cls-3" points="15.68 7.34 19.51 7.34 19.51 11.17 18.91 11.17 18.76 10.99 18.65 11.02 18.77 11.17 17.96 11.17 17.76 10.96 19.3 10.96 19.3 7.55 15.89 7.55 15.89 10.96 16.78 10.96 16.55 11.17 15.68 11.17 15.68 7.34"/><path class="cls-3" d="M14.87,8.21h.83l0,0,.15.16h-.2l-.14-.15-.06.05.09.1h-.88l.22-.2Z" transform="translate(2.05 2.76)"/><polygon class="cls-3" points="18.76 10.99 18.91 11.17 18.77 11.17 18.65 11.02 18.76 10.99"/><polygon class="cls-3" points="17.7 11.01 17.75 10.96 17.76 10.96 17.96 11.17 17.85 11.17 17.7 11.01"/><polygon class="cls-3" points="17.52 11.02 17.65 11.17 17.55 11.17 17.46 11.07 17.52 11.02"/><path class="cls-3" d="M14.8,8.19h0l-.22.2H14.5l.23-.21Z" transform="translate(2.05 2.76)"/><path class="cls-3" d="M14.9,8.14l-.05-.06-.1.09a.2.2,0,1,1,.18,0h-.09Z" transform="translate(2.05 2.76)"/><path class="cls-3" d="M14.85,8.08l.05.06-.06.05h0l0,0Z" transform="translate(2.05 2.76)"/><path class="cls-3" d="M14.94,8.19h0Z" transform="translate(2.05 2.76)"/><path class="cls-3" d="M14.83,8.2h0Z" transform="translate(2.05 2.76)"/><path class="cls-3" d="M15.53,7.46a1.08,1.08,0,1,0-1.08-1.08A1.08,1.08,0,0,0,15.53,7.46Zm0-.31a.74.74,0,1,1,.74-.74A.74.74,0,0,1,15.52,7.15Z" transform="translate(2.05 2.76)"/><path class="cls-3" d="M7.09,24.8H18.9c.12,0,.2-.2.2-.2s0-8.88,0-9.14-.19-.25-.19-.25l-11.8,0c-.23,0-.23.25-.23.25V24.6A.2.2,0,0,0,7.09,24.8Zm7.32-4.14h-.16l-6.95.55V15.54l11.38,0v.22h0l0,.16h-.06l0,5.33Zm4.31,3.73H7.32v-1.9a.58.58,0,0,0,.34-.55.44.44,0,0,0-.34-.48v-.41H18.7v.37s-.36,0-.35.52.36.54.36.54Z" transform="translate(2.05 2.76)"/><path class="cls-3" d="M14.3,18.48h0a.22.22,0,0,0-.19.11V16.69h.23Z" transform="translate(2.05 2.76)"/><polygon class="cls-3" points="16.35 19.16 16.35 19.36 16.12 19.36 16.12 19.17 16.35 19.16"/><path class="cls-3" d="M14.25,18.91h0v1H18V16.24H14.3v.07h-.23V16h4.18v4.18H14.06V18.8A.22.22,0,0,0,14.25,18.91Z" transform="translate(2.05 2.76)"/><path class="cls-3" d="M8.2,21.6v2.18H9.76V21.6Zm1.33.23v1.71H8.43V21.84Z" transform="translate(2.05 2.76)"/><path class="cls-3" d="M9.9,21.6v2.18h1.56V21.6Zm1.33.23v1.71h-1.1V21.84Z" transform="translate(2.05 2.76)"/><path class="cls-3" d="M11.58,21.6v2.18h1.56V21.6Zm1.33.23v1.71h-1.1V21.84Z" transform="translate(2.05 2.76)"/><path class="cls-3" d="M13.24,21.6v2.18h1.56V21.6Zm1.33.23v1.71h-1.1V21.84Z" transform="translate(2.05 2.76)"/><path class="cls-3" d="M14.94,21.6v2.18H16.5V21.6Zm1.33.23v1.71h-1.1V21.84Z" transform="translate(2.05 2.76)"/><path class="cls-3" d="M16.61,21.6v2.18h1.56V21.6Zm1.33.23v1.71h-1.1V21.84Z" transform="translate(2.05 2.76)"/><polygon class="cls-3" points="20.76 18.51 20.8 18.67 20.74 18.67 20.74 18.51 20.76 18.51"/><polygon class="cls-3" points="13.98 19.57 13.98 19.42 15.03 18.55 20.74 18.51 20.74 18.67 15.07 18.68 13.98 19.57"/><path class="cls-3" d="M14.36,16.39H14.3v-.09h.13A.22.22,0,0,0,14.36,16.39Z" transform="translate(2.05 2.76)"/><polygon class="cls-3" points="13.74 20.68 13.75 20.68 13.75 20.69 13.74 20.68"/><polygon class="cls-3" points="15.48 19.19 13.98 20.58 13.98 20.46 15.43 19.11 15.45 19.1 16.12 19.08 16.12 19.17 15.48 19.19"/><polygon class="cls-3" points="16.35 19.16 16.12 19.17 16.12 19.08 16.35 19.07 16.35 19.16"/><polygon class="cls-3" points="15.55 19.39 15.57 19.39 16.12 19.36 16.12 19.45 15.6 19.47 13.98 20.91 13.98 20.8 15.55 19.39"/><path class="cls-3" d="M14.46,16.66H14.3v-.09h.09A.21.21,0,0,0,14.46,16.66Z" transform="translate(2.05 2.76)"/><polygon class="cls-3" points="16.35 19.36 16.35 19.45 16.12 19.45 16.12 19.36 16.35 19.36"/><polygon class="cls-3" points="16.31 23.44 16.3 23.43 16.46 23.43 16.46 23.43 16.31 23.44"/><path class="cls-3" d="M11.7,18.9V19l0,0Z" transform="translate(2.05 2.76)"/><polygon class="cls-3" points="15.29 22.39 14.34 22.39 13.98 22 13.98 21.87 14.38 22.3 15.33 22.3 16.46 23.43 16.3 23.43 15.29 22.39"/><path class="cls-3" d="M14,18.69a.22.22,0,0,1,0-.11v.22A.21.21,0,0,1,14,18.69Z" transform="translate(2.05 2.76)"/><path class="cls-3" d="M14.47,18.69a.22.22,0,0,1-.18.22v-.43A.22.22,0,0,1,14.47,18.69Z" transform="translate(2.05 2.76)"/><path class="cls-3" d="M14.25,18.47h0v.43h0a.22.22,0,0,1-.19-.11v-.22A.22.22,0,0,1,14.25,18.47Z" transform="translate(2.05 2.76)"/><circle class="cls-3" cx="13.77" cy="26.88" r="0.18"/><circle class="cls-3" cx="14.3" cy="26.88" r="0.18"/><circle class="cls-3" cx="16.7" cy="26.88" r="0.18"/><circle class="cls-3" cx="17.23" cy="26.88" r="0.18"/><circle class="cls-3" cx="18.78" cy="26.88" r="0.18"/><path class="cls-3" d="M14.46,16.3h0a.22.22,0,1,1,.14.39l-.1,0v-.08h-.08a.21.21,0,0,1,0-.2h.1Z" transform="translate(2.05 2.76)"/><path class="cls-3" d="M14.42,16.3h0v.09h-.1A.22.22,0,0,1,14.42,16.3Z" transform="translate(2.05 2.76)"/><path class="cls-3" d="M14.46,16.66a.21.21,0,0,1-.08-.07h.08Z" transform="translate(2.05 2.76)"/><path class="cls-3" d="M16.13,16.94a1.17,1.17,0,1,0,1.17,1.17A1.17,1.17,0,0,0,16.13,16.94Zm0,.36a.81.81,0,1,1-.81.81A.81.81,0,0,1,16.13,17.3Z" transform="translate(2.05 2.76)"/><polygon class="cls-3" points="9.8 22.95 9.8 18.77 13.98 18.77 13.98 19.42 13.79 19.59 13.82 19.71 13.98 19.57 13.98 20.46 13.75 20.68 13.75 19 10.04 19 10.04 22.71 13.75 22.71 13.75 21.75 13.98 22 13.98 22.95 9.8 22.95"/><path class="cls-3" d="M11.71,18.83a.22.22,0,0,0,0-.07v-.83l.05.05.18-.17V18l-.17.15.06.07.11-.1v1l-.22-.24A.22.22,0,0,0,11.71,18.83Z" transform="translate(2.05 2.76)"/><polygon class="cls-3" points="13.79 19.59 13.98 19.42 13.98 19.57 13.82 19.71 13.79 19.59"/><polygon class="cls-3" points="13.8 20.74 13.75 20.69 13.75 20.68 13.98 20.46 13.98 20.58 13.8 20.74"/><polygon class="cls-3" points="13.81 20.95 13.98 20.8 13.98 20.91 13.87 21.01 13.81 20.95"/><path class="cls-3" d="M11.7,18.9v0l.22.24v.13L11.7,19Z" transform="translate(2.05 2.76)"/><path class="cls-3" d="M11.64,18.79l-.06.06.1.1a.22.22,0,1,1,0-.2v.1Z" transform="translate(2.05 2.76)"/><path class="cls-3" d="M11.57,18.85l.06-.06.06.06v.05l0,.05Z" transform="translate(2.05 2.76)"/><path class="cls-3" d="M11.7,18.76a.22.22,0,0,1,0,.07.22.22,0,0,1,0,0h0Z" transform="translate(2.05 2.76)"/><path class="cls-3" d="M11.71,18.87v0Z" transform="translate(2.05 2.76)"/><path class="cls-3" d="M10.9,18.11a1.17,1.17,0,1,0-1.17,1.17A1.17,1.17,0,0,0,10.9,18.11Zm-.34,0a.81.81,0,1,1-.81-.81A.81.81,0,0,1,10.56,18.12Z" transform="translate(2.05 2.76)"/><polygon class="cls-3" points="2.62 8.19 3.06 8.2 3.06 8.24 2.62 8.25 2.62 8.19"/><polygon class="cls-3" points="7 8.23 7 8.1 7.45 8.01 7.45 8.03 7.32 8.23 7 8.23"/><path class="cls-3" d="M1.84,20.41l2.26,0c.25.09.24.49.23.6H1.6C1.59,20.44,1.84,20.41,1.84,20.41Z" transform="translate(2.05 2.76)"/><path class="cls-3" d="M1.63,21.18h2C2.91,21.32,1.85,21.47,1.63,21.18Z" transform="translate(2.05 2.76)"/><path class="cls-3" d="M1.6,21H4.32v0l-.69.15h-2a.19.19,0,0,1,0-.1S1.6,21,1.6,21Z" transform="translate(2.05 2.76)"/><polygon class="cls-3" points="6.06 16.84 4.02 16.84 4.02 16.39 6.06 16.4 6.06 16.84"/><rect class="cls-3" x="3.85" y="16.39" width="0.17" height="0.44"/><path class="cls-3" d="M8.4,3.94H8.33l-2.62,0L5,5,0,5c-.33,0-.42.08-.45.11l-.07.07v0L-.61,21.43H6.58l0-6.55,2.49,0V5.23C9.1,4.4,8.69,4,8.4,3.94ZM8.75,14.5h-.1V11.07h0V14.4l-2.06,0v.05H6.16l0,6.49h-1v.11H5.09V21H4.32v0l-.69.15c-.72.14-1.79.29-2,0a.19.19,0,0,1,0-.1s0-.06,0-.09H-.16l0-15.5H.56V5.43H1v0l3.94,0V5.34l.44-.1v0L6,4.35l2.33,0a.84.84,0,0,1,.37.81v5.49h.1Z" transform="translate(2.05 2.76)"/><path class="cls-3" d="M1.52,12.08v2.76H4.45V11.95h0a3,3,0,0,0,1-1.75l0-4.94-.12.2H4.95v3a2.37,2.37,0,0,0-2-1.15,2.37,2.37,0,0,0-2,1.1l0-2.9H.56L.51,10.23A2.74,2.74,0,0,0,1.52,12.08ZM1.86,12H2v.06Zm1,.44h.06A2.58,2.58,0,0,0,4,12.22V13H2v-.67A2.49,2.49,0,0,0,2.86,12.47ZM4,14.39H2v-.32H1.8v-.44H2v-.2H4v1ZM1,9.1a2.11,2.11,0,0,1,2-1.51,2.12,2.12,0,0,1,2,1.6A2.34,2.34,0,0,1,5,9.8a2.25,2.25,0,0,1-.74,1.68A2,2,0,0,1,2.95,12a2.08,2.08,0,0,1-1.81-1.1A2.29,2.29,0,0,1,1,9.1Z" transform="translate(2.05 2.76)"/><path class="cls-3" d="M2,12.08,1.86,12H2Z" transform="translate(2.05 2.76)"/><path class="cls-3" d="M2.69,8.94,2.4,8A1.3,1.3,0,0,1,3.49,8l-.3,1Z" transform="translate(2.05 2.76)"/><path class="cls-3" d="M3.21,10.68l.28.91a1.3,1.3,0,0,1-1.08,0l.3-1Z" transform="translate(2.05 2.76)"/><path class="cls-3" d="M4.67,9.27a1.3,1.3,0,0,1,0,1.08l-1-.3v-.5Z" transform="translate(2.05 2.76)"/><path class="cls-3" d="M2.1,10.07l-.91.28a1.3,1.3,0,0,1,0-1.08l1,.3Z" transform="translate(2.05 2.76)"/><circle class="cls-3" cx="4.99" cy="12.59" r="0.67"/><path class="cls-3" d="M8.18,7.19l-.34-.33,0-.06h0l.37.36v3.51H8.19Z" transform="translate(2.05 2.76)"/><path class="cls-3" d="M7.23,7.27l.08,0L8,7.94v2.73H7.94V8Z" transform="translate(2.05 2.76)"/><path class="cls-3" d="M7,7.3h.1l.73.75v2.62H7.73V8.08Z" transform="translate(2.05 2.76)"/><path class="cls-3" d="M7.6,8.13v2.55H7.53V8.16l-.89-.9.14,0Z" transform="translate(2.05 2.76)"/><path class="cls-3" d="M5.87,11.52c0-.16.21-.16.29-.16v.31C6.06,11.68,5.87,11.67,5.87,11.52Z" transform="translate(2.05 2.76)"/><path class="cls-3" d="M5.87,12.13c0-.15.21-.16.29-.16v.31C6.06,12.28,5.87,12.28,5.87,12.13Z" transform="translate(2.05 2.76)"/><path class="cls-3" d="M5.87,12.72c0-.15.21-.16.29-.16v.31C6.06,12.87,5.87,12.87,5.87,12.72Z" transform="translate(2.05 2.76)"/><path class="cls-3" d="M5.87,13.33h.06v-.07h0c0-.1.2-.1.27-.1v.31C6.07,13.47,5.88,13.46,5.87,13.33Z" transform="translate(2.05 2.76)"/><path class="cls-3" d="M5.88,13.94h0v-.07h0c0-.11.2-.12.28-.12v.31C6.07,14.06,5.9,14.06,5.88,13.94Z" transform="translate(2.05 2.76)"/><path class="cls-3" d="M5.87,13.33H4.93V16h0v-.14H4.86V13.25h1a.14.14,0,0,0,0,.06Z" transform="translate(2.05 2.76)"/><path class="cls-3" d="M5.93,13.33H5.87a.14.14,0,0,1,0-.06h0Z" transform="translate(2.05 2.76)"/><path class="cls-3" d="M5.08,13.87h.8a.09.09,0,0,0,0,.07H5.16v7H5.09V13.87Z" transform="translate(2.05 2.76)"/><rect class="cls-3" x="7.14" y="23.75" width="0.07" height="0.11"/><path class="cls-3" d="M5.91,13.94h0a.09.09,0,0,1,0-.07h0Z" transform="translate(2.05 2.76)"/><path class="cls-3" d="M4.86,16v-.14h-4V20H4.93V16Zm-.08,3.83H1V16H2.44v-.08h.09V16h.29v-.08h.09V16h.31v-.08h.09V16H4.78Z" transform="translate(2.05 2.76)"/><rect class="cls-3" x="6.91" y="18.63" width="0.07" height="0.14"/><path class="cls-3" d="M7.84,6.86l.05-.05a1.09,1.09,0,1,0-1.25.45L6.5,7.12l.05-.05.22.22L7,7.3l-.08-.09.05-.05.13.14.18,0-.1-.1.05-.05.13.13a1.09,1.09,0,0,0,.53-.38Zm-.11-.62A.76.76,0,1,1,7,5.48.76.76,0,0,1,7.72,6.24Z" transform="translate(2.05 2.76)"/><path class="cls-3" d="M7.84,6.86l.05-.05,0,.06Z" transform="translate(2.05 2.76)"/><path class="cls-3" d="M7.13,7.17l.05-.05.13.13-.08,0Z" transform="translate(2.05 2.76)"/><path class="cls-3" d="M7,7.3l-.08-.09.05-.05.13.14H7Z" transform="translate(2.05 2.76)"/><path class="cls-3" d="M6.56,7.07l.22.22-.14,0L6.5,7.12Z" transform="translate(2.05 2.76)"/><path class="cls-3" d="M6.16,14.06h0v-.3h0v-.29h0v-.3h0v-.29h0v-.3h0v-.28h0V12h0v-.3h0v-.3h0v-.69H7.53v.06H7.6v-.06h.33v0H8v0h.18v.06h.07v-.06h.38v.39H6.59v3.38H6.16v0h0Z" transform="translate(2.05 2.76)"/><polygon class="cls-3" points="10.8 13.44 10.8 17.26 10.71 17.26 10.71 13.83 10.71 13.83 10.71 13.44 10.8 13.44"/><polygon class="cls-3" points="8.64 17.21 8.64 17.26 8.21 17.26 8.21 17.22 8.64 17.21"/><polygon class="cls-3" points="10.25 13.5 10.25 13.44 10.32 13.44 10.32 13.5 10.25 13.5"/><rect class="cls-3" x="7.94" y="10.67" width="0.07" height="0.05" transform="translate(1.99 2.81) rotate(-0.37)"/><rect class="cls-3" x="7.73" y="10.67" width="0.07" height="0.01" transform="translate(1.92 2.86) rotate(-0.71)"/><rect class="cls-3" x="9.58" y="13.43" width="0.07" height="0.06"/><path class="cls-3" d="M6.21,11.67h0v-.31h0Z" transform="translate(2.05 2.76)"/><path class="cls-3" d="M6.21,12.27h0V12h0Z" transform="translate(2.05 2.76)"/><path class="cls-3" d="M6.21,12.86h0v-.31h0Z" transform="translate(2.05 2.76)"/><path class="cls-3" d="M6.21,13.46h0v-.31h0Z" transform="translate(2.05 2.76)"/><path class="cls-3" d="M6.21,14.05h0v-.31h0Z" transform="translate(2.05 2.76)"/><path class="cls-3" d="M2.44,16.5v-.07h-1v3h3v-3H3.31v.07H3.22v-.07H2.92v.07H2.82v-.07H2.54v.07Zm-.59.37H4v2.07H1.86Z" transform="translate(2.05 2.76)"/><rect class="cls-3" x="5.28" y="18.78" width="0.09" height="0.41"/><rect class="cls-3" x="5.28" y="18.7" width="0.09" height="0.08"/><rect class="cls-3" x="5.28" y="19.19" width="0.09" height="0.07"/><rect class="cls-3" x="4.5" y="18.78" width="0.09" height="0.41"/><rect class="cls-3" x="4.5" y="18.7" width="0.09" height="0.08"/><rect class="cls-3" x="4.5" y="19.19" width="0.09" height="0.07"/><rect class="cls-3" x="4.88" y="18.78" width="0.09" height="0.41"/><rect class="cls-3" x="4.88" y="18.7" width="0.09" height="0.08"/><rect class="cls-3" x="4.88" y="19.19" width="0.09" height="0.07"/><circle class="cls-3" cx="9.2" cy="11.11" r="0.16"/><circle class="cls-3" cx="9.2" cy="12.48" r="0.16"/><circle class="cls-3" cx="9.2" cy="13.01" r="0.16"/><circle class="cls-3" cx="7.69" cy="20.33" r="0.16"/><circle class="cls-3" cx="7.69" cy="20.86" r="0.16"/><circle class="cls-3" cx="2.37" cy="19.82" r="0.16"/><circle class="cls-3" cx="2.37" cy="20.35" r="0.16"/><circle class="cls-3" cx="2.39" cy="21.43" r="0.16"/></g><path class="cls-3" d="M8.33,5.32A3.81,3.81,0,0,1,7,4.74a5.68,5.68,0,0,1-1.4-1.37A4.52,4.52,0,0,1,4.67.48c0-.06,0-.11,0-.17V.23l0-.23L5,0H5a4.23,4.23,0,0,1,1.26.3,5,5,0,0,1,2,1.37A4.78,4.78,0,0,1,9.49,4.53a3.14,3.14,0,0,1,0,.65l0,.17-.17,0H9A3.32,3.32,0,0,1,8.33,5.32ZM9,4.56A4.34,4.34,0,0,0,7.91,2,4.52,4.52,0,0,0,6.1.75a3.88,3.88,0,0,0-1-.26A4,4,0,0,0,6,3.1,5.21,5.21,0,0,0,7.25,4.36a3.3,3.3,0,0,0,1.17.51A2.86,2.86,0,0,0,9,4.93,2.74,2.74,0,0,0,9,4.56Z" transform="translate(2.05 2.76)"/><path class="cls-3" d="M5.78,21.2a2.45,2.45,0,0,1-1.24-.35,4.76,4.76,0,0,1-1.15-1,13.27,13.27,0,0,1-3-5.52,11.83,11.83,0,0,1-.33-1.72,9.88,9.88,0,0,1,0-1.78A6.86,6.86,0,0,1,.75,8.12a5.66,5.66,0,0,1,1.67-2,5.33,5.33,0,0,1,2.37-1,4.34,4.34,0,0,1,.94-.06,4.34,4.34,0,0,1,1,.19l1,.33.11,0c.35.12.69.24,1,.32a.83.83,0,0,0,.48-.05l1.15-.39.36-.12a7.61,7.61,0,0,1,1.28-.33,4.49,4.49,0,0,1,1.24,0,7,7,0,0,1,1.12.22,4.89,4.89,0,0,1,2.7,1.89l0,0,.12.19-.18.13L17,7.6l-.33.23a4.15,4.15,0,0,0-1.36,1.63A4,4,0,0,0,15,10.74a4.77,4.77,0,0,0,.12,1.63,4.07,4.07,0,0,0,1.22,2,4.53,4.53,0,0,0,1.32.87l0,0a.25.25,0,0,1,.08.08l.08.1,0,.12-.06.17-.12.33a12,12,0,0,1-1.8,3.15,8.64,8.64,0,0,1-.88,1,3.68,3.68,0,0,1-1,.69,2.68,2.68,0,0,1-1.58.22A6.49,6.49,0,0,1,11,20.73a4.88,4.88,0,0,0-1.28-.34l-.38,0a4.15,4.15,0,0,0-.86.1,7.13,7.13,0,0,0-1.11.36,6.09,6.09,0,0,1-1.14.33A2.5,2.5,0,0,1,5.78,21.2ZM5.52,5.53a4.34,4.34,0,0,0-.66.06,4.86,4.86,0,0,0-2.17.91A5.15,5.15,0,0,0,1.16,8.33a6.44,6.44,0,0,0-.68,2.56,9.51,9.51,0,0,0,0,1.7,11.35,11.35,0,0,0,.32,1.66,12.82,12.82,0,0,0,2.89,5.33,4.34,4.34,0,0,0,1,.88,2,2,0,0,0,1,.29,2.07,2.07,0,0,0,.37,0A5.65,5.65,0,0,0,7.2,20.4,7.48,7.48,0,0,1,8.38,20a4.6,4.6,0,0,1,1-.11l.43,0a5.33,5.33,0,0,1,1.4.37,6,6,0,0,0,1.27.38,2.21,2.21,0,0,0,1.31-.18,3.24,3.24,0,0,0,.86-.61,8.24,8.24,0,0,0,.84-1,11.5,11.5,0,0,0,1.73-3l.11-.31A5.09,5.09,0,0,1,16,14.71a4.57,4.57,0,0,1-1.35-2.22,5.22,5.22,0,0,1-.13-1.79,4.43,4.43,0,0,1,.37-1.44,4.6,4.6,0,0,1,1.5-1.81l.3-.21a4.45,4.45,0,0,0-2.32-1.54,6.65,6.65,0,0,0-1-.2,4,4,0,0,0-1.11,0,7.17,7.17,0,0,0-1.2.31L10.67,6l-1.15.39A1.5,1.5,0,0,1,9,6.44a1,1,0,0,1-.25,0C8.41,6.32,8,6.19,7.7,6.07L7.59,6l-1-.33a3.9,3.9,0,0,0-.91-.17Z" transform="translate(2.05 2.76)"/><g class="cls-5"><path class="cls-3" d="M8.17-2.56V8.49c0,.12.18.19.18.19h8.55c.24,0,.23-.18.23-.18l0-11c0-.21-.23-.21-.23-.21H8.36A.19.19,0,0,0,8.17-2.56ZM12,4.28h0V4.14h0v-6.5h4.78l0,10.65h-.21v0l-.15,0V8.28L12,8.3Zm-3.49,4V-2.35h1.77a.54.54,0,0,0,.51.32.41.41,0,0,0,.45-.32h.38V8.3h-.34s0-.33-.48-.33-.5.34-.5.34Z" transform="translate(2.05 2.76)"/><path class="cls-3" d="M14.09,4.18a.2.2,0,0,0,0,0A.2.2,0,0,0,14,4h1.77v.22Z" transform="translate(2.05 2.76)"/><polygon class="cls-3" points="18.09 6.94 17.91 6.94 17.9 6.72 18.09 6.72 18.09 6.94"/><path class="cls-3" d="M13.68,4.14a.19.19,0,0,0,0,0h-1V7.65h3.48V4.18h-.07V4h.29V7.87H12.49V4h1.29A.2.2,0,0,0,13.68,4.14Z" transform="translate(2.05 2.76)"/><path class="cls-3" d="M11.17-1.52h-2V-.06h2ZM10.95-.28H9.35v-1h1.6Z" transform="translate(2.05 2.76)"/><path class="cls-3" d="M11.17.06h-2V1.53h2Zm-.22,1.25H9.35v-1h1.6Z" transform="translate(2.05 2.76)"/><path class="cls-3" d="M11.17,1.64h-2V3.1h2Zm-.22,1.25H9.35v-1h1.6Z" transform="translate(2.05 2.76)"/><path class="cls-3" d="M11.17,3.19h-2V4.66h2Zm-.22,1.25H9.35v-1h1.6Z" transform="translate(2.05 2.76)"/><path class="cls-3" d="M11.17,4.78h-2V6.24h2ZM10.95,6H9.35V5h1.6Z" transform="translate(2.05 2.76)"/><path class="cls-3" d="M11.17,6.34h-2V7.8h2Zm-.22,1.24H9.35v-1h1.6Z" transform="translate(2.05 2.76)"/><polygon class="cls-3" points="18.7 11.07 18.55 11.11 18.55 11.05 18.7 11.05 18.7 11.07"/><polygon class="cls-3" points="17.71 4.73 17.85 4.73 18.66 5.7 18.7 11.05 18.55 11.05 18.54 5.74 17.71 4.73"/><path class="cls-3" d="M16,4.24V4.18h.08V4.3A.21.21,0,0,0,16,4.24Z" transform="translate(2.05 2.76)"/><polygon class="cls-3" points="16.67 4.5 16.68 4.51 16.66 4.51 16.67 4.5"/><polygon class="cls-3" points="18.07 6.13 16.77 4.73 16.88 4.73 18.14 6.08 18.15 6.09 18.17 6.72 18.09 6.72 18.07 6.13"/><polygon class="cls-3" points="18.09 6.94 18.09 6.72 18.17 6.72 18.18 6.94 18.09 6.94"/><polygon class="cls-3" points="17.87 6.2 17.88 6.21 17.9 6.72 17.82 6.72 17.8 6.24 16.45 4.73 16.56 4.73 17.87 6.2"/><path class="cls-3" d="M15.79,4.33h0V4.18h.08v.08A.21.21,0,0,0,15.79,4.33Z" transform="translate(2.05 2.76)"/><polygon class="cls-3" points="17.91 6.94 17.83 6.94 17.82 6.72 17.9 6.72 17.91 6.94"/><polygon class="cls-3" points="14.09 6.9 14.1 6.89 14.1 7.04 14.09 7.05 14.09 6.9"/><path class="cls-3" d="M13.69,1.75h-.07l0,0Z" transform="translate(2.05 2.76)"/><polygon class="cls-3" points="15.07 5.95 15.07 5.06 15.44 4.73 15.56 4.73 15.15 5.1 15.16 5.99 14.1 7.04 14.1 6.89 15.07 5.95"/><path class="cls-3" d="M13.89,3.93A.2.2,0,0,1,14,4h-.2A.21.21,0,0,1,13.89,3.93Z" transform="translate(2.05 2.76)"/><path class="cls-3" d="M13.89,4.34a.2.2,0,0,1-.2-.16h.4A.2.2,0,0,1,13.89,4.34Z" transform="translate(2.05 2.76)"/><path class="cls-3" d="M14.09,4.14a.2.2,0,0,1,0,0h-.4a.19.19,0,0,1,0,0,.2.2,0,0,1,.1-.18H14A.2.2,0,0,1,14.09,4.14Z" transform="translate(2.05 2.76)"/><circle class="cls-3" cx="10.87" cy="4.53" r="0.17"/><circle class="cls-3" cx="10.87" cy="5.02" r="0.17"/><circle class="cls-3" cx="10.87" cy="7.27" r="0.17"/><circle class="cls-3" cx="10.87" cy="7.77" r="0.17"/><circle class="cls-3" cx="10.87" cy="9.22" r="0.17"/><path class="cls-3" d="M16.13,4.33v0a.2.2,0,1,1-.36.13.2.2,0,0,1,0-.1h.07V4.26a.2.2,0,0,1,.11,0H16v.1Z" transform="translate(2.05 2.76)"/><path class="cls-3" d="M16.12,4.3v0H16v-.1A.21.21,0,0,1,16.12,4.3Z" transform="translate(2.05 2.76)"/><path class="cls-3" d="M15.79,4.33a.21.21,0,0,1,.07-.08v.07Z" transform="translate(2.05 2.76)"/><path class="cls-3" d="M15.53,5.89A1.1,1.1,0,1,0,14.43,7,1.1,1.1,0,0,0,15.53,5.89Zm-.34,0a.76.76,0,1,1-.76-.76A.76.76,0,0,1,15.19,5.9Z" transform="translate(2.05 2.76)"/><polygon class="cls-3" points="14.55 0.81 18.46 0.81 18.46 4.73 17.85 4.73 17.69 4.54 17.58 4.57 17.71 4.73 16.88 4.73 16.68 4.51 18.24 4.51 18.24 1.03 14.77 1.03 14.77 4.51 15.67 4.51 15.44 4.73 14.55 4.73 14.55 0.81"/><path class="cls-3" d="M13.76,1.76h.84l-.05.05.16.17h-.2l-.14-.16-.06.05.09.1H13.5l.22-.21Z" transform="translate(2.05 2.76)"/><polygon class="cls-3" points="17.69 4.54 17.85 4.73 17.71 4.73 17.58 4.57 17.69 4.54"/><polygon class="cls-3" points="16.61 4.56 16.66 4.51 16.68 4.51 16.88 4.73 16.77 4.73 16.61 4.56"/><polygon class="cls-3" points="16.42 4.57 16.56 4.73 16.45 4.73 16.36 4.62 16.42 4.57"/><path class="cls-3" d="M13.69,1.75h0L13.5,2h-.12l.23-.22Z" transform="translate(2.05 2.76)"/><path class="cls-3" d="M13.8,1.69l-.06-.06-.1.09a.21.21,0,1,1,.19,0h-.09Z" transform="translate(2.05 2.76)"/><path class="cls-3" d="M13.74,1.63l.06.06-.06.05h0l0,0Z" transform="translate(2.05 2.76)"/><path class="cls-3" d="M13.83,1.75h0Z" transform="translate(2.05 2.76)"/><path class="cls-3" d="M13.73,1.75h0Z" transform="translate(2.05 2.76)"/><path class="cls-3" d="M14.43,1a1.1,1.1,0,0,0,1.1-1.1,1.1,1.1,0,0,0-1.1-1.1,1.1,1.1,0,0,0-1.1,1.1A1.1,1.1,0,0,0,14.43,1Zm0-.31a.76.76,0,0,1-.76-.76.76.76,0,0,1,.76-.76.76.76,0,0,1,.76.76A.76.76,0,0,1,14.43.68Z" transform="translate(2.05 2.76)"/><path class="cls-6" d="M16.47,8.89H5.42c-.12,0-.19.18-.19.18s0,8.31,0,8.55.18.23.18.23l11,0c.21,0,.21-.23.21-.23V9.08A.19.19,0,0,0,16.47,8.89ZM9.62,12.76h6.65v4.78l-10.65,0v-.21h0l0-.15h.06l0-4.46Zm-4-3.49H16.25v1.77a.54.54,0,0,0-.32.51.41.41,0,0,0,.32.45v.38H5.6v-.34s.33,0,.33-.48-.34-.5-.34-.5Z" transform="translate(2.05 2.76)"/><path class="cls-6" d="M9.73,14.81h0a.2.2,0,0,0,.18-.1v1.77H9.73Z" transform="translate(2.05 2.76)"/><polygon class="cls-6" points="11.78 19.52 11.78 19.34 12 19.33 12 19.52 11.78 19.52"/><path class="cls-6" d="M9.77,14.4h0v-1H6.25v3.48H9.73v-.07h.22v.29H6V13.21H9.94v1.29A.2.2,0,0,0,9.77,14.4Z" transform="translate(2.05 2.76)"/><path class="cls-6" d="M15.43,11.89v-2H14v2Zm-1.24-.22v-1.6h1v1.6Z" transform="translate(2.05 2.76)"/><path class="cls-6" d="M13.84,11.89v-2H12.38v2Zm-1.24-.22v-1.6h1v1.6Z" transform="translate(2.05 2.76)"/><path class="cls-6" d="M12.27,11.89v-2H10.81v2ZM11,11.67v-1.6h1v1.6Z" transform="translate(2.05 2.76)"/><path class="cls-6" d="M10.71,11.89v-2H9.25v2Zm-1.24-.22v-1.6h1v1.6Z" transform="translate(2.05 2.76)"/><path class="cls-6" d="M9.12,11.89v-2H7.66v2Zm-1.25-.22v-1.6h1v1.6Z" transform="translate(2.05 2.76)"/><path class="cls-6" d="M7.56,11.89v-2H6.1v2Zm-1.25-.22v-1.6h1v1.6Z" transform="translate(2.05 2.76)"/><polygon class="cls-6" points="7.66 20.13 7.61 19.98 7.67 19.98 7.67 20.13 7.66 20.13"/><polygon class="cls-6" points="14 19.14 14 19.28 13.02 20.09 7.67 20.13 7.67 19.98 12.98 19.97 14 19.14"/><path class="cls-6" d="M9.67,16.76h.06v.08H9.61A.21.21,0,0,0,9.67,16.76Z" transform="translate(2.05 2.76)"/><polygon class="cls-6" points="14.22 18.1 14.21 18.1 14.21 18.09 14.22 18.1"/><polygon class="cls-6" points="12.59 19.5 14 18.2 14 18.31 12.64 19.57 12.63 19.58 12 19.6 12 19.52 12.59 19.5"/><polygon class="cls-6" points="11.78 19.52 12 19.52 12 19.6 11.78 19.6 11.78 19.52"/><polygon class="cls-6" points="12.53 19.3 12.51 19.31 12 19.33 12 19.25 12.48 19.23 14 17.88 14 17.99 12.53 19.3"/><path class="cls-6" d="M9.57,16.51h.16v.08H9.65A.2.2,0,0,0,9.57,16.51Z" transform="translate(2.05 2.76)"/><polygon class="cls-6" points="11.78 19.34 11.78 19.25 12 19.25 12 19.33 11.78 19.34"/><polygon class="cls-6" points="11.82 15.52 11.83 15.53 11.68 15.53 11.68 15.52 11.82 15.52"/><path class="cls-6" d="M12.16,14.41v-.07l0,0Z" transform="translate(2.05 2.76)"/><polygon class="cls-6" points="12.77 16.5 13.66 16.5 14 16.87 14 16.99 13.62 16.58 12.73 16.59 11.68 15.53 11.83 15.53 12.77 16.5"/><path class="cls-6" d="M10,14.61a.2.2,0,0,1,0,.1v-.2A.2.2,0,0,1,10,14.61Z" transform="translate(2.05 2.76)"/><path class="cls-6" d="M9.56,14.61a.21.21,0,0,1,.17-.2v.4A.21.21,0,0,1,9.56,14.61Z" transform="translate(2.05 2.76)"/><path class="cls-6" d="M9.77,14.81h0v-.4h0a.2.2,0,0,1,.18.1v.2A.2.2,0,0,1,9.77,14.81Z" transform="translate(2.05 2.76)"/><circle class="cls-6" cx="14.2" cy="12.3" r="0.17"/><circle class="cls-6" cx="13.7" cy="12.3" r="0.17"/><circle class="cls-6" cx="11.45" cy="12.3" r="0.17"/><circle class="cls-6" cx="10.95" cy="12.3" r="0.17"/><circle class="cls-6" cx="9.51" cy="12.3" r="0.17"/><path class="cls-6" d="M9.57,16.85h0a.2.2,0,1,1-.13-.36l.1,0v.07h.07a.2.2,0,0,1,0,.11.21.21,0,0,1,0,.07h-.1Z" transform="translate(2.05 2.76)"/><path class="cls-6" d="M9.61,16.85h0v-.08h.1A.21.21,0,0,1,9.61,16.85Z" transform="translate(2.05 2.76)"/><path class="cls-6" d="M9.57,16.51a.2.2,0,0,1,.08.07H9.57Z" transform="translate(2.05 2.76)"/><path class="cls-6" d="M8,16.25a1.1,1.1,0,1,0-1.1-1.1A1.1,1.1,0,0,0,8,16.25Zm0-.34a.76.76,0,1,1,.76-.76A.76.76,0,0,1,8,15.91Z" transform="translate(2.05 2.76)"/><polygon class="cls-6" points="17.91 15.98 17.91 19.89 14 19.89 14 19.28 14.18 19.12 14.15 19.01 14 19.14 14 18.31 14.21 18.1 14.21 19.67 17.69 19.67 17.69 16.2 14.21 16.2 14.21 17.1 14 16.87 14 15.98 17.91 15.98"/><path class="cls-6" d="M12.15,14.48a.2.2,0,0,0,0,.07v.77l-.05-.05-.17.16v-.2l.16-.14L12,15l-.1.09v-.89l.21.23A.22.22,0,0,0,12.15,14.48Z" transform="translate(2.05 2.76)"/><polygon class="cls-6" points="14.18 19.12 14 19.28 14 19.14 14.15 19.01 14.18 19.12"/><polygon class="cls-6" points="14.16 18.04 14.21 18.09 14.21 18.1 14 18.31 14 18.2 14.16 18.04"/><polygon class="cls-6" points="14.15 17.85 14 17.99 14 17.88 14.1 17.79 14.15 17.85"/><path class="cls-6" d="M12.16,14.41v0l-.21-.23V14.1l.22.24Z" transform="translate(2.05 2.76)"/><path class="cls-6" d="M12.21,14.52l.06-.06-.09-.1a.2.2,0,0,1,.17-.09.21.21,0,1,1-.19.28v-.09Z" transform="translate(2.05 2.76)"/><path class="cls-6" d="M12.27,14.46l-.06.06-.05-.06v0l0,0Z" transform="translate(2.05 2.76)"/><path class="cls-6" d="M12.16,14.55a.2.2,0,0,1,0-.07.22.22,0,0,1,0,0h0Z" transform="translate(2.05 2.76)"/><path class="cls-6" d="M12.15,14.45v0Z" transform="translate(2.05 2.76)"/><path class="cls-6" d="M12.91,15.15a1.1,1.1,0,1,0,1.1-1.1A1.1,1.1,0,0,0,12.91,15.15Zm.31,0a.76.76,0,1,1,.76.76A.76.76,0,0,1,13.22,15.15Z" transform="translate(2.05 2.76)"/><path class="cls-3" d="M-2.05,15.95H5.28l0-6.68,2.55-.05V-.59c0-.85-.41-1.22-.71-1.31H7.07l-2.67,0L3.69-.81l-5.15,0c-.34,0-.43.08-.46.11L-2-.6v0Zm2.29-.26h-2l0-16.2,5.49-.1.81-1.11,2.55,0,.48.45V.68L7.62,9,5,9.12l.08,6.55H2.27C1.54,15.83.45,16,.23,15.69Z" transform="translate(2.05 2.76)"/><path class="cls-3" d="M-1.78-.51l5.49-.1.81-1.11,2.55,0,.48.45V.68L7.62,9,5,9.12l.08,6.55H2.27l.7-.15v0h.78v.11h.08v-.11h1l0-6.63h.44V8.81l2.1,0V5.37h0v3.5h.1V5h-.1V-.64A.86.86,0,0,0,7-1.46l-2.38,0-.58.93v0l-.45.1v.13l-4,0v0H-.86v.06h-.69l0,15.82H.19s0,.06,0,.09a.19.19,0,0,0,0,.11h-2Z" transform="translate(2.05 2.76)"/><path class="cls-3" d="M2.65,6.36v.18a2.62,2.62,0,0,1-1.11.25H1.48a2.53,2.53,0,0,1-.91-.16V6.4a2.32,2.32,0,0,0,2.08,0Z" transform="translate(2.05 2.76)"/><path class="cls-3" d="M-.87,4.07A2.58,2.58,0,0,0,.46,6.34H.12V6.4a2.81,2.81,0,0,1-1-1.89L-.86-.33h.45l0,3A2.62,2.62,0,0,0-.87,4.07Z" transform="translate(2.05 2.76)"/><path class="cls-3" d="M3.09,6.27H2.82A2.58,2.58,0,0,0,4,4.07a2.63,2.63,0,0,0-.39-1.39v-3h.33l.13-.2,0,5A3,3,0,0,1,3.09,6.27Z" transform="translate(2.05 2.76)"/><polygon class="cls-3" points="1.19 2.38 1.65 2.38 1.64 2.43 1.19 2.43 1.19 2.38"/><polygon class="cls-3" points="5.67 2.41 5.67 2.28 6.12 2.18 6.12 2.21 6 2.41 5.67 2.41"/><path class="cls-3" d="M.44,14.9l2.31,0c.26.1.24.5.23.61H.19C.18,14.94.44,14.9.44,14.9Z" transform="translate(2.05 2.76)"/><path class="cls-3" d="M.23,15.69h2C1.54,15.83.45,16,.23,15.69Z" transform="translate(2.05 2.76)"/><path class="cls-3" d="M.19,15.49H3v0l-.7.15h-2a.19.19,0,0,1,0-.11S.19,15.52.19,15.49Z" transform="translate(2.05 2.76)"/><path class="cls-3" d="M.57,7.32H.4v.45H.57V8H.4v.45H.57v.33H2.65V8.44h.17V8H2.65V7.78h.17V7.32H2.65V6.54a2.3,2.3,0,0,0,.44-.28h0V9.21h-3V6.4a2.05,2.05,0,0,0,.45.24Z" transform="translate(2.05 2.76)"/><path class="cls-3" d="M2.65,6.36l.17-.1h.27a2.3,2.3,0,0,1-.44.28Z" transform="translate(2.05 2.76)"/><path class="cls-3" d="M.46,6.34l.12.06v.24A2.05,2.05,0,0,1,.12,6.4V6.34Z" transform="translate(2.05 2.76)"/><polygon class="cls-3" points="4.71 10.54 2.63 10.54 2.63 10.08 4.71 10.09 4.71 10.54"/><rect class="cls-3" x="4.71" y="10.09" width="0.17" height="0.45"/><polygon class="cls-3" points="2.46 10.54 2.46 10.08 2.63 10.08 2.63 10.54 2.46 10.54"/><polygon class="cls-3" points="4.71 11.2 2.63 11.2 2.63 10.74 4.71 10.75 4.71 11.2"/><polygon class="cls-3" points="2.45 11.2 2.45 10.74 2.63 10.74 2.63 11.2 2.45 11.2"/><rect class="cls-3" x="4.71" y="10.75" width="0.17" height="0.45"/><path class="cls-3" d="M1.57,6.32A2.07,2.07,0,0,0,3,5.78a2,2,0,0,1-1.43.56A1.81,1.81,0,0,1-.27,5.2,2.12,2.12,0,0,0,1.57,6.32Z" transform="translate(2.05 2.76)"/><path class="cls-3" d="M1.57,1.81a2.16,2.16,0,0,0-2,1.54V2.63a2.42,2.42,0,0,1,2-1.12A2.42,2.42,0,0,1,3.63,2.68v.77A2.16,2.16,0,0,0,1.57,1.81Z" transform="translate(2.05 2.76)"/><path class="cls-3" d="M2.65,6.36a2.32,2.32,0,0,1-2.08,0V6.34H.46A2.58,2.58,0,0,1-.87,4.07,2.62,2.62,0,0,1-.44,2.63v.73a2.35,2.35,0,0,0-.11.72A2.33,2.33,0,0,0-.27,5.2,1.81,1.81,0,0,0,1.53,6.34,2,2,0,0,0,3,5.78a2.3,2.3,0,0,0,.75-1.71,2.36,2.36,0,0,0-.08-.62V2.68A2.63,2.63,0,0,1,4,4.07a2.58,2.58,0,0,1-1.2,2.2H2.65Z" transform="translate(2.05 2.76)"/><path class="cls-3" d="M2.65,6.27h.17l-.17.1Z" transform="translate(2.05 2.76)"/><path class="cls-3" d="M.57,6.4.46,6.34H.57Z" transform="translate(2.05 2.76)"/><path class="cls-3" d="M1.31,3.19,1,2.26a1.33,1.33,0,0,1,1.11,0l-.31,1Z" transform="translate(2.05 2.76)"/><path class="cls-3" d="M1.84,5l.29.93A1.33,1.33,0,0,1,1,5.93l.3-1Z" transform="translate(2.05 2.76)"/><path class="cls-3" d="M3.33,3.53a1.33,1.33,0,0,1,0,1.11l-1-.3V3.82Z" transform="translate(2.05 2.76)"/><path class="cls-3" d="M.71,4.35l-.93.29a1.33,1.33,0,0,1,0-1.11l1,.3Z" transform="translate(2.05 2.76)"/><circle class="cls-3" cx="3.61" cy="6.87" r="0.68"/><path class="cls-3" d="M6.92,1.41l-.35-.33,0-.06h0L7,1.38V5H6.93Z" transform="translate(2.05 2.76)"/><path class="cls-3" d="M5.95,1.49l.08,0,.7.71V5H6.66V2.21Z" transform="translate(2.05 2.76)"/><path class="cls-3" d="M5.67,1.53h.1l.74.77V5H6.45V2.32Z" transform="translate(2.05 2.76)"/><path class="cls-3" d="M6.32,2.36V5H6.25V2.4l-.91-.92.14,0Z" transform="translate(2.05 2.76)"/><path class="cls-3" d="M4.56,5.83c0-.16.21-.17.29-.16V6C4.75,6,4.55,6,4.56,5.83Z" transform="translate(2.05 2.76)"/><path class="cls-3" d="M4.56,6.45c0-.16.21-.17.29-.16V6.6C4.75,6.61,4.55,6.6,4.56,6.45Z" transform="translate(2.05 2.76)"/><path class="cls-3" d="M4.56,7.05c0-.16.21-.17.29-.16V7.2C4.75,7.21,4.55,7.2,4.56,7.05Z" transform="translate(2.05 2.76)"/><path class="cls-3" d="M4.56,7.67h.06V7.6h0c0-.1.21-.1.28-.1v.31C4.76,7.82,4.57,7.81,4.56,7.67Z" transform="translate(2.05 2.76)"/><path class="cls-3" d="M4.56,8.3h0V8.23h0c0-.12.21-.12.28-.12v.31C4.76,8.43,4.59,8.42,4.56,8.3Z" transform="translate(2.05 2.76)"/><path class="cls-3" d="M4.56,7.67h-1v2.74h0v-.15H3.52V7.6h1a.14.14,0,0,0,0,.06Z" transform="translate(2.05 2.76)"/><path class="cls-3" d="M4.62,7.67H4.56a.14.14,0,0,1,0-.06h0Z" transform="translate(2.05 2.76)"/><path class="cls-3" d="M3.75,8.23h.81a.13.13,0,0,0,0,0,.12.12,0,0,0,0,0H3.83v7.19H3.76V8.23Z" transform="translate(2.05 2.76)"/><rect class="cls-3" x="5.81" y="18.26" width="0.08" height="0.11"/><path class="cls-3" d="M4.6,8.3h0a.12.12,0,0,1,0,0,.13.13,0,0,1,0,0h0Z" transform="translate(2.05 2.76)"/><path class="cls-3" d="M3.52,10.41v-.15H-.55v4.21H3.59V10.41Zm-.08,3.91H-.4V10.42H1.06v-.08h.09v.08h.29v-.08h.09v.08h.31v-.08h.1v.08h1.5Z" transform="translate(2.05 2.76)"/><rect class="cls-3" x="5.58" y="13.03" width="0.07" height="0.15"/><path class="cls-3" d="M6.56,1.07,6.61,1A1.1,1.1,0,0,0,6.79.41,1.12,1.12,0,1,0,5.34,1.47L5.2,1.34l.05-.05.22.22.19,0-.09-.09.05-.05.13.14.18,0-.1-.11.05-.05L6,1.47a1.11,1.11,0,0,0,.54-.39ZM6.45.43a.77.77,0,1,1-.77-.77A.77.77,0,0,1,6.45.43Z" transform="translate(2.05 2.76)"/><path class="cls-3" d="M6.56,1.07,6.61,1l0,.06Z" transform="translate(2.05 2.76)"/><path class="cls-3" d="M5.84,1.39l.05-.05L6,1.47l-.08,0Z" transform="translate(2.05 2.76)"/><path class="cls-3" d="M5.67,1.53l-.09-.09.05-.05.13.14h-.1Z" transform="translate(2.05 2.76)"/><path class="cls-3" d="M5.26,1.28l.22.22-.14,0L5.2,1.34Z" transform="translate(2.05 2.76)"/><path class="cls-3" d="M4.85,8.42H4.9V8.11h0v-.3H4.9V7.5h0V7.2H4.9V6.89h0V6.6H4.9V6.29h0V6H4.9V5.67h0V5h1.4V5h.08V5h.34V5h.08V5h.19V5H7V5h.39v.4H5.29V8.81H4.85v0h0Z" transform="translate(2.05 2.76)"/><polygon class="cls-3" points="9.55 7.72 9.55 11.63 9.45 11.63 9.45 8.13 9.45 8.13 9.45 7.72 9.55 7.72"/><polygon class="cls-3" points="7.35 11.58 7.35 11.63 6.91 11.63 6.91 11.59 7.35 11.58"/><rect class="cls-3" x="8.98" y="7.73" width="0.08" height="0.06"/><polygon class="cls-3" points="8.79 7.78 8.72 7.78 8.72 7.72 8.79 7.72 8.79 7.78"/><rect class="cls-3" x="6.45" y="4.96" width="0.08" height="0.01" transform="translate(2.03 2.8) rotate(-0.32)"/><rect class="cls-3" x="8.3" y="7.73" width="0.08" height="0.06"/><path class="cls-3" d="M4.9,6H4.85V5.67h0Z" transform="translate(2.05 2.76)"/><path class="cls-3" d="M4.9,6.6H4.85V6.29h0Z" transform="translate(2.05 2.76)"/><path class="cls-3" d="M4.9,7.2H4.85V6.89h0Z" transform="translate(2.05 2.76)"/><path class="cls-3" d="M4.9,7.81H4.85V7.5h0Z" transform="translate(2.05 2.76)"/><path class="cls-3" d="M4.9,8.42H4.85V8.11h0Z" transform="translate(2.05 2.76)"/><path class="cls-3" d="M1.06,10.91v-.08H0v3H3.07v-3H1.95v.08h-.1v-.08H1.54v.08H1.45v-.08H1.15v.08Zm-.6.38H2.61v2.12H.46Z" transform="translate(2.05 2.76)"/><rect class="cls-3" x="3.91" y="13.18" width="0.1" height="0.42"/><rect class="cls-3" x="3.91" y="13.1" width="0.1" height="0.08"/><rect class="cls-3" x="3.91" y="13.6" width="0.1" height="0.08"/><rect class="cls-3" x="3.11" y="13.18" width="0.09" height="0.42"/><rect class="cls-3" x="3.11" y="13.1" width="0.09" height="0.08"/><rect class="cls-3" x="3.11" y="13.6" width="0.09" height="0.08"/><rect class="cls-3" x="3.5" y="13.18" width="0.09" height="0.42"/><rect class="cls-3" x="3.5" y="13.1" width="0.09" height="0.08"/><rect class="cls-3" x="3.5" y="13.6" width="0.09" height="0.08"/><circle class="cls-3" cx="7.91" cy="5.36" r="0.16"/><circle class="cls-3" cx="7.91" cy="6.76" r="0.16"/><circle class="cls-3" cx="7.91" cy="7.3" r="0.16"/><circle class="cls-3" cx="6.38" cy="14.77" r="0.16"/><circle class="cls-3" cx="6.38" cy="15.31" r="0.16"/><circle class="cls-3" cx="0.95" cy="14.24" r="0.16"/><circle class="cls-3" cx="0.95" cy="14.78" r="0.16"/><circle class="cls-3" cx="0.96" cy="15.89" r="0.16"/></g></svg>