<svg id="Layer_1" data-name="Layer 1" xmlns="http://www.w3.org/2000/svg" xmlns:xlink="http://www.w3.org/1999/xlink" viewBox="0 0 249.68 43.86"><defs><style>.cls-1{fill:none;}.cls-2{clip-path:url(#clip-path);}</style><clipPath id="clip-path" transform="translate(1.05)"><path class="cls-1" d="M9.22,9.12a7.27,7.27,0,0,0-1.11.1,8.13,8.13,0,0,0-3.64,1.52A8.62,8.62,0,0,0,1.9,13.81,10.78,10.78,0,0,0,.77,18.1,15.93,15.93,0,0,0,.84,21a19,19,0,0,0,.53,2.77,21.45,21.45,0,0,0,4.84,8.92,7.26,7.26,0,0,0,1.74,1.47,3.31,3.31,0,0,0,1.7.48,3.46,3.46,0,0,0,.62-.06A9.45,9.45,0,0,0,12,34a12.52,12.52,0,0,1,2-.64,7.69,7.69,0,0,1,1.61-.18,6.55,6.55,0,0,1,.73,0,8.92,8.92,0,0,1,2.35.62,10.08,10.08,0,0,0,2.13.64,3.7,3.7,0,0,0,2.2-.31,5.42,5.42,0,0,0,1.44-1,13.79,13.79,0,0,0,1.4-1.61,19.25,19.25,0,0,0,2.89-5.07l.19-.52a8.52,8.52,0,0,1-2.16-1.48,7.65,7.65,0,0,1-2.26-3.72,8.74,8.74,0,0,1-.22-3,7.41,7.41,0,0,1,.63-2.4,7.7,7.7,0,0,1,2.51-3l.5-.35A7.45,7.45,0,0,0,24,9.42a11.13,11.13,0,0,0-1.75-.34,6.76,6.76,0,0,0-1.86,0,12,12,0,0,0-2,.51l-.6.21-1.93.66a2.51,2.51,0,0,1-.81.15,1.75,1.75,0,0,1-.42-.05c-.62-.15-1.22-.36-1.81-.56L12.67,10c-.54-.19-1.09-.38-1.64-.55a6.53,6.53,0,0,0-1.52-.28Z"/></clipPath></defs><title>macgarage_logo_black</title><path d="M72.21,35.65v-27h-.08L60.39,35.58h-1.6L47.05,8.66H47v27h-1.6V5.2h1.86l12.3,28.28h.13L71.91,5.2h1.9V35.65Z" transform="translate(1.05)"/><path d="M78.32,29.53c0-3.88,2.79-6.1,8.12-6.5l7.79-.57v-2c0-4-2.41-6.31-6.5-6.31-3.86,0-6.42,2-7,5.4H79.19c.4-4.2,3.78-6.9,8.57-6.9,5,0,8.1,3,8.1,7.7V35.65H94.28v-4.9h0c-1.12,3.08-4.52,5.19-8.38,5.19C81.4,35.94,78.32,33.33,78.32,29.53Zm15.91-2.3v-3.4l-7.58.57c-4.35.32-6.69,2.09-6.69,5.13s2.55,5,6.1,5C90.6,34.49,94.23,31.26,94.23,27.23Z" transform="translate(1.05)"/><path d="M117.06,19.76c-.65-3.25-3.5-5.63-7.45-5.63-5.11,0-8.36,4-8.36,10.17s3.25,10.17,8.38,10.17c3.88,0,6.73-2.19,7.41-5.47h1.65c-.7,4.09-4.24,6.94-9.05,6.94-6.1,0-10-4.5-10-11.65s3.93-11.67,10-11.67c4.87,0,8.4,3.12,9.07,7.13Z" transform="translate(1.05)"/><path d="M135.29,36.09c-7.93,0-13.34-6.39-13.34-15.85s5.32-15.49,13.34-15.49c6.12,0,11,3.69,12.09,9.22h-1.71c-1.2-4.66-5.25-7.66-10.38-7.66-7,0-11.63,5.49-11.63,13.91s4.69,14.31,11.63,14.31c6.54,0,10.61-4.11,10.61-10.68V22.1H135.29V20.58h12.28v3C147.57,31.36,142.93,36.09,135.29,36.09Z" transform="translate(1.05)"/><path d="M150.71,29.53c0-3.88,2.79-6.1,8.12-6.5l7.79-.57v-2c0-4-2.41-6.31-6.5-6.31-3.86,0-6.42,2-7,5.4h-1.58c.4-4.2,3.78-6.9,8.57-6.9,5,0,8.1,3,8.1,7.7V35.65h-1.58v-4.9h0c-1.12,3.08-4.52,5.19-8.38,5.19C153.79,35.94,150.71,33.33,150.71,29.53Zm15.91-2.3v-3.4L159,24.4c-4.35.32-6.69,2.09-6.69,5.13s2.55,5,6.1,5C163,34.49,166.62,31.26,166.62,27.23Z" transform="translate(1.05)"/><path d="M173.14,12.92h1.54v4.5h.06c.91-3.1,3.06-4.79,6.1-4.79A6.2,6.2,0,0,1,183,13v1.65a5.5,5.5,0,0,0-2.36-.46c-3.57,0-5.8,3.06-5.8,7.34V35.65h-1.65Z" transform="translate(1.05)"/><path d="M184.07,29.53c0-3.88,2.79-6.1,8.12-6.5l7.79-.57v-2c0-4-2.41-6.31-6.5-6.31-3.86,0-6.42,2-7,5.4h-1.58c.4-4.2,3.78-6.9,8.57-6.9,5,0,8.1,3,8.1,7.7V35.65H200v-4.9h0c-1.12,3.08-4.52,5.19-8.38,5.19C187.15,35.94,184.07,33.33,184.07,29.53ZM200,27.23v-3.4l-7.58.57c-4.35.32-6.69,2.09-6.69,5.13s2.55,5,6.1,5C196.35,34.49,200,31.26,200,27.23Z" transform="translate(1.05)"/><path d="M206.66,38.05h1.69c.76,2.45,3.42,4.33,7.34,4.33,4.75,0,7.75-2.76,7.75-6.92V29.59h0A8.68,8.68,0,0,1,215,35.9c-5.72,0-9.6-4.71-9.6-11.63s3.9-11.65,9.62-11.65a8.79,8.79,0,0,1,8.5,6.37h.06V12.92h1.54V35.39c0,5.09-3.67,8.46-9.48,8.46C210.74,43.86,207.3,41.26,206.66,38.05Zm16.78-13.78c0-6-3.4-10.15-8.29-10.15S207,18.24,207,24.27s3.29,10.13,8.12,10.13S223.44,30.24,223.44,24.27Z" transform="translate(1.05)"/><path d="M248.36,29.29c-.74,3.84-4.24,6.65-9.26,6.65-6.16,0-10.13-4.33-10.13-11.63,0-7,4-11.69,10-11.69s9.71,4.37,9.71,11v.95h-18v.08c0,6.2,3.38,9.83,8.48,9.83,4.16,0,6.92-2.19,7.58-5.17Zm-17.71-6.14H247c0-5.38-3.27-9.05-8.06-9.05S230.91,17.73,230.65,23.15Z" transform="translate(1.05)"/><path class="cls-1" d="M8.55.82h0a6.06,6.06,0,0,1,.8.16A5.92,5.92,0,0,0,8.55.82Z" transform="translate(1.05)"/><path class="cls-1" d="M9.46,2a1.26,1.26,0,0,0,1.06-.6l-.35-.16A7.2,7.2,0,0,0,9.35,1a6.06,6.06,0,0,0-.8-.16,6.72,6.72,0,0,0,0,.84A1.28,1.28,0,0,0,9.46,2Z" transform="translate(1.05)"/><path class="cls-1" d="M9.44,2.54l-.32,0,1.41,1.43v2l.2.21V3.87Z" transform="translate(1.05)"/><path class="cls-1" d="M8.9,2.45a1.81,1.81,0,0,1-.21-.11A7,7,0,0,0,9.94,5.17q.23.31.48.6V4ZM9.76,4.6A.27.27,0,1,1,10,4.32.27.27,0,0,1,9.76,4.6Z" transform="translate(1.05)"/><path class="cls-1" d="M11,1.65l0,0h0l.63.61,0,4.66.42.31.24.13V2.5A7.51,7.51,0,0,0,11,1.65Z" transform="translate(1.05)"/><path class="cls-1" d="M13.63,8V3.91c-.14-.2-.28-.4-.44-.59l-.1-.1v4.6A5.14,5.14,0,0,0,13.63,8Z" transform="translate(1.05)"/><path class="cls-1" d="M11,1.8a1.86,1.86,0,0,1-.9.65l1.16,1.18v3l.32.28,0-4.51Z" transform="translate(1.05)"/><path class="cls-1" d="M9.91,2.49l-.3.05,1.24,1.28V6.26l.23.22V3.68Z" transform="translate(1.05)"/><path class="cls-1" d="M14.48,8.16a.27.27,0,0,1,.21-.1.26.26,0,0,1,.23.15h.15a4.56,4.56,0,0,0,0-.62,6.76,6.76,0,0,0-.8-2.68V8.14Zm.21-.93a.28.28,0,1,1-.28.28A.28.28,0,0,1,14.69,7.23Z" transform="translate(1.05)"/><path d="M8.55.82h0a6.86,6.86,0,0,0,0,.83h0A6.72,6.72,0,0,1,8.55.82Z" transform="translate(1.05)"/><path d="M10.54,5.91V6l.2.21V6.12Z" transform="translate(1.05)"/><path d="M10.52,1.41h0l-.33-.15A7.41,7.41,0,0,0,9.35,1a7.2,7.2,0,0,1,.82.27Z" transform="translate(1.05)"/><path d="M9.94,5.17A7,7,0,0,1,8.69,2.35h0A7.11,7.11,0,0,0,10,5.26c.15.2.3.39.46.58V5.77Q10.17,5.49,9.94,5.17Z" transform="translate(1.05)"/><path d="M13.08,3.21l.1.1c.17.19.3.39.44.59V3.85c-.12-.16-.22-.32-.36-.48l-.19-.19Z" transform="translate(1.05)"/><path d="M12.32,2.5v0A7.77,7.77,0,0,0,11,1.65h0A7.51,7.51,0,0,1,12.32,2.5Z" transform="translate(1.05)"/><path d="M15.06,7.61a4.56,4.56,0,0,1,0,.62h-.15a.26.26,0,0,1,.06.13v0h.23a4.77,4.77,0,0,0,0-.63,6.93,6.93,0,0,0-.92-2.93v.12A6.76,6.76,0,0,1,15.06,7.61Z" transform="translate(1.05)"/><path d="M10.45.54A7.06,7.06,0,0,0,8.36,0h-.1L7.84,0l0,.38V.51c0,.09,0,.19,0,.28A7.54,7.54,0,0,0,9.32,5.62a9.47,9.47,0,0,0,2.34,2.28,6.35,6.35,0,0,0,2.23,1A5.54,5.54,0,0,0,15,9h.45l.29,0,0-.29a5.23,5.23,0,0,0,0-1.09,8,8,0,0,0-2.06-4.73A8.27,8.27,0,0,0,10.45.54Zm2.82,2.83c.13.16.24.32.36.48a8.51,8.51,0,0,1,.64,1,6.93,6.93,0,0,1,.92,2.93,4.77,4.77,0,0,1,0,.63H15a4.82,4.82,0,0,1-.54,0l-.15,0-.12,0-.51-.14a5.38,5.38,0,0,1-.55-.21l-.44-.22-.31-.19-.18-.11c-.16-.11-.32-.23-.48-.36L11.54,7l-.32-.28-.13-.11-.23-.23-.13-.14L10.54,6l-.13-.14c-.16-.18-.31-.38-.46-.58A7.11,7.11,0,0,1,8.67,2.34a6.57,6.57,0,0,1-.09-.69,6.86,6.86,0,0,1,0-.83h0a5.92,5.92,0,0,1,.8.16,7.41,7.41,0,0,1,.84.28l.33.15.52.24a7.77,7.77,0,0,1,1.28.83l.27.21a6.88,6.88,0,0,1,.49.49Z" transform="translate(1.05)"/><path d="M10.87,6.26v.07l.23.23V6.48Z" transform="translate(1.05)"/><path d="M13.08,7.81v.11a5.38,5.38,0,0,0,.55.21V8A5.14,5.14,0,0,1,13.08,7.81Z" transform="translate(1.05)"/><path d="M12.09,7.27,11.67,7V7c.16.12.32.25.48.36l.18.11V7.4Z" transform="translate(1.05)"/><path d="M11.23,6.59v.08l.32.28V6.87Z" transform="translate(1.05)"/><path d="M14.26,8.14v.15l.15,0a.28.28,0,0,1,.06-.15Z" transform="translate(1.05)"/><path d="M14,8.12l.22,0V4.93a8.06,8.06,0,0,0-.64-1V8C13.77,8,13.9,8.09,14,8.12Z" transform="translate(1.05)"/><path d="M14,8.12c-.14,0-.27-.09-.41-.13v.15l.51.14.12,0V8.14Z" transform="translate(1.05)"/><path d="M14.27,4.93V4.81a8.51,8.51,0,0,0-.64-1v.06A8.06,8.06,0,0,1,14.27,4.93Z" transform="translate(1.05)"/><circle cx="15.73" cy="7.52" r="0.28"/><path d="M14.69,8.06a.27.27,0,0,0-.21.1c.14,0,.28,0,.43,0A.26.26,0,0,0,14.69,8.06Z" transform="translate(1.05)"/><path d="M14.91,8.21c-.15,0-.29,0-.43,0a.28.28,0,0,0-.06.15,4.82,4.82,0,0,0,.54,0v0A.26.26,0,0,0,14.91,8.21Z" transform="translate(1.05)"/><path d="M12.63,7.58c.15.08.3.17.45.24V3.21a6.67,6.67,0,0,0-.49-.5Z" transform="translate(1.05)"/><path d="M13.08,3.21v0a6.88,6.88,0,0,0-.49-.49v0A6.67,6.67,0,0,1,13.08,3.21Z" transform="translate(1.05)"/><path d="M12.63,7.58V7.7l.44.22V7.81C12.93,7.75,12.78,7.66,12.63,7.58Z" transform="translate(1.05)"/><path d="M12.32,2.5V7.4l.31.17,0-4.86Z" transform="translate(1.05)"/><path d="M12.59,2.72v0l-.27-.21v0Z" transform="translate(1.05)"/><path d="M12.32,7.4v.11l.31.19V7.58Z" transform="translate(1.05)"/><path d="M11,1.69h0L11,1.8l.58.56,0,4.51.13.09,0-4.66Z" transform="translate(1.05)"/><path d="M11.54,6.87V7l.13.09V7Z" transform="translate(1.05)"/><path d="M10.05,2.45l-.14,0,1.17,1.19v2.8l.13.11v-3Z" transform="translate(1.05)"/><path d="M11.1,6.48v.08l.13.11V6.59Z" transform="translate(1.05)"/><path d="M9.61,2.54H9.44l1.29,1.32V6.12l.13.14V3.81Z" transform="translate(1.05)"/><path d="M10.74,6.12v.07l.13.14V6.26Z" transform="translate(1.05)"/><path d="M9.13,2.51,8.9,2.45,10.42,4V5.77l.13.14v-2Z" transform="translate(1.05)"/><path d="M10.42,5.77v.07l.13.14V5.91Z" transform="translate(1.05)"/><path d="M8.67,2.23l.09-.09.37.37.32,0L9.3,2.39l.09-.09.22.23.3-.05-.17-.18.09-.09.22.23A1.86,1.86,0,0,0,11,1.8h0L11,1.7l0,0c-.17-.09-.35-.16-.53-.24A1.26,1.26,0,0,1,9.46,2a1.28,1.28,0,0,1-.87-.35,6.43,6.43,0,0,0,.1.69,1.81,1.81,0,0,0,.21.11Z" transform="translate(1.05)"/><path d="M8.59,1.66h0a6.57,6.57,0,0,0,.09.69h0A6.43,6.43,0,0,1,8.59,1.66Z" transform="translate(1.05)"/><path d="M11,1.65h0l-.52-.24h0C10.7,1.49,10.88,1.57,11,1.65Z" transform="translate(1.05)"/><path d="M11,1.8,11,1.7l-.08.09Z" transform="translate(1.05)"/><path d="M9.74,2.31l.17.18.14,0-.22-.23Z" transform="translate(1.05)"/><path d="M9.3,2.39l.15.15h.17l-.22-.23Z" transform="translate(1.05)"/><path d="M8.67,2.23l.23.23.23.06-.37-.37Z" transform="translate(1.05)"/><circle cx="10.81" cy="4.32" r="0.27"/><g class="cls-2"><path d="M15.69,6.51l0,18.13c0,.19.3.31.3.31H30c.39,0,.38-.29.38-.29l0-18.11c0-.35-.38-.35-.38-.35H16A.31.31,0,0,0,15.69,6.51ZM22,17.74h0v-.24h0l0-10.66H29.9l0,17.46h-.34v0l-.25.07v-.1l-7.31,0Zm-5.72,6.61V6.87h2.91a.89.89,0,0,0,.84.52.67.67,0,0,0,.74-.52h.62V24.33l-.56,0s0-.55-.79-.54-.82.56-.82.56Z" transform="translate(1.05)"/><path d="M25.4,17.57a.31.31,0,0,0,0-.07.33.33,0,0,0-.17-.29h2.91v.36Z" transform="translate(1.05)"/><polygon points="29.64 17.57 29.33 17.57 29.32 17.21 29.63 17.21 29.64 17.57"/><path d="M24.73,17.5a.37.37,0,0,0,0,.07h-1.6v5.7h5.7v-5.7h-.11v-.36h.48v6.42H22.78V17.21H24.9A.34.34,0,0,0,24.73,17.5Z" transform="translate(1.05)"/><path d="M20.6,8.22H17.26v2.4H20.6Zm-.36,2H17.62V8.57h2.63Z" transform="translate(1.05)"/><path d="M20.6,10.82H17.26v2.4H20.6Zm-.36,2H17.62V11.18h2.63Z" transform="translate(1.05)"/><path d="M20.6,13.4H17.26v2.4H20.6Zm-.36,2H17.62V13.76h2.63Z" transform="translate(1.05)"/><path d="M20.6,16H17.26v2.4H20.6Zm-.36,2H17.62V16.31h2.63Z" transform="translate(1.05)"/><path d="M20.6,18.56H17.26V21H20.6Zm-.36,2H17.62V18.92h2.63Z" transform="translate(1.05)"/><path d="M20.6,21.12H17.26v2.4H20.6Zm-.36,2H17.62V21.47h2.63Z" transform="translate(1.05)"/><polygon points="30.64 24.33 30.39 24.4 30.39 24.3 30.64 24.3 30.64 24.33"/><polygon points="29 13.94 29.24 13.94 30.57 15.54 30.64 24.3 30.39 24.3 30.37 15.6 29 13.94"/><path d="M28.59,17.67v-.1h.13v.2A.32.32,0,0,0,28.59,17.67Z" transform="translate(1.05)"/><polygon points="27.3 13.57 27.31 13.58 27.29 13.58 27.3 13.57"/><polygon points="29.6 16.24 27.46 13.94 27.64 13.94 29.71 16.16 29.73 16.18 29.76 17.21 29.63 17.21 29.6 16.24"/><polygon points="29.64 17.57 29.63 17.21 29.76 17.21 29.77 17.57 29.64 17.57"/><polygon points="29.27 16.35 29.29 16.37 29.32 17.21 29.19 17.21 29.16 16.42 26.95 13.94 27.13 13.94 29.27 16.35"/><path d="M28.18,17.82h0v-.26h.13v.13A.34.34,0,0,0,28.18,17.82Z" transform="translate(1.05)"/><polygon points="29.33 17.57 29.2 17.57 29.19 17.21 29.32 17.21 29.33 17.57"/><polygon points="23.07 17.51 23.09 17.49 23.09 17.74 23.08 17.74 23.07 17.51"/><path d="M24.74,13.58h-.12l0,0Z" transform="translate(1.05)"/><polygon points="24.69 15.95 24.68 14.49 25.28 13.94 25.48 13.94 24.82 14.55 24.82 16.01 23.09 17.74 23.09 17.49 24.69 15.95"/><path d="M25.07,17.17a.34.34,0,0,1,.17,0H24.9A.34.34,0,0,1,25.07,17.17Z" transform="translate(1.05)"/><path d="M25.07,17.84a.34.34,0,0,1-.33-.27h.66A.34.34,0,0,1,25.07,17.84Z" transform="translate(1.05)"/><path d="M25.4,17.5a.31.31,0,0,1,0,.07h-.66a.37.37,0,0,1,0-.07.34.34,0,0,1,.17-.29h.33A.33.33,0,0,1,25.4,17.5Z" transform="translate(1.05)"/><circle cx="17.79" cy="13.61" r="0.28"/><circle cx="17.79" cy="14.42" r="0.28"/><circle cx="17.79" cy="18.11" r="0.28"/><circle cx="17.79" cy="18.92" r="0.28"/><circle cx="17.79" cy="21.3" r="0.28"/><path d="M28.73,17.82v-.05a.33.33,0,0,1,.08.22.34.34,0,0,1-.67,0,.34.34,0,0,1,0-.16h.12V17.7a.34.34,0,0,1,.18-.05l.12,0v.16Z" transform="translate(1.05)"/><path d="M28.73,17.77v.05H28.6v-.16A.32.32,0,0,1,28.73,17.77Z" transform="translate(1.05)"/><path d="M28.18,17.82a.34.34,0,0,1,.11-.12v.12Z" transform="translate(1.05)"/><path d="M27.76,20.38a1.8,1.8,0,1,0-1.8,1.8A1.8,1.8,0,0,0,27.76,20.38Zm-.56,0A1.24,1.24,0,1,1,26,19.14,1.24,1.24,0,0,1,27.2,20.39Z" transform="translate(1.05)"/><polygon points="23.82 7.52 30.24 7.52 30.24 13.94 29.24 13.94 28.98 13.63 28.8 13.68 29 13.94 27.64 13.94 27.31 13.58 29.88 13.58 29.88 7.88 24.18 7.88 24.18 13.58 25.67 13.58 25.28 13.94 23.82 13.94 23.82 7.52"/><path d="M24.86,13.6l.11,0h1.27l-.08.08.26.28h-.33l-.23-.26-.1.09.15.17H24.43l.37-.34Z" transform="translate(1.05)"/><polygon points="28.98 13.63 29.24 13.94 29 13.94 28.8 13.68 28.98 13.63"/><polygon points="27.21 13.66 27.29 13.58 27.31 13.58 27.64 13.94 27.46 13.94 27.21 13.66"/><polygon points="26.9 13.68 27.13 13.94 26.95 13.94 26.8 13.77 26.9 13.68"/><path d="M24.74,13.58l.06,0-.37.34h-.2l.39-.36Z" transform="translate(1.05)"/><path d="M24.92,13.49l-.09-.1-.16.15a.34.34,0,1,1,.31,0h-.15Z" transform="translate(1.05)"/><path d="M24.82,13.39l.09.1-.1.09h-.08l-.08,0Z" transform="translate(1.05)"/><path d="M25,13.58l-.11,0H24.8l0,0Z" transform="translate(1.05)"/><path d="M24.8,13.59l-.06,0h.08Z" transform="translate(1.05)"/><path d="M26,12.35a1.8,1.8,0,1,0-1.8-1.8A1.8,1.8,0,0,0,26,12.35Zm0-.52a1.25,1.25,0,1,1,1.25-1.25A1.24,1.24,0,0,1,26,11.84Z" transform="translate(1.05)"/><path d="M11.83,41.39l19.78,0c.21,0,.34-.33.34-.33s0-14.87,0-15.3-.32-.41-.32-.41l-19.76,0c-.38,0-.38.41-.38.41V41A.34.34,0,0,0,11.83,41.39Zm12.25-6.93h-.25v0l-11.63.93v-9.5l19.05,0v.37h0l.07.27h-.11l0,8.93ZM31.3,40.7H12.23V37.51a1,1,0,0,0,.57-.92.73.73,0,0,0-.57-.81v-.68H31.28l0,.61s-.6,0-.59.86.61.9.61.9Z" transform="translate(1.05)"/><path d="M23.9,30.8h-.07a.36.36,0,0,0-.32.19V27.8h.39Z" transform="translate(1.05)"/><polygon points="24.95 27.31 24.95 27.64 24.56 27.66 24.56 27.32 24.95 27.31"/><path d="M23.83,31.52h.07v1.75h6.22V27H23.9v.12h-.39v-.52h7v7h-7V31.34A.37.37,0,0,0,23.83,31.52Z" transform="translate(1.05)"/><path d="M13.7,36v3.65h2.62V36Zm2.23.39v2.86H14.09V36.42Z" transform="translate(1.05)"/><path d="M16.53,36v3.65h2.62V36Zm2.23.39v2.86H16.93V36.42Z" transform="translate(1.05)"/><path d="M19.35,36v3.65H22V36Zm2.23.39v2.86H19.74V36.42Z" transform="translate(1.05)"/><path d="M22.14,36v3.65h2.62V36Zm2.23.39v2.86H22.53V36.42Z" transform="translate(1.05)"/><path d="M25,36v3.65H27.6V36Zm2.23.39v2.86H25.37V36.42Z" transform="translate(1.05)"/><path d="M27.77,36v3.65h2.62V36Zm2.23.39v2.86H28.16V36.42Z" transform="translate(1.05)"/><polygon points="32.33 26.22 32.4 26.49 32.29 26.49 32.29 26.22 32.33 26.22"/><polygon points="20.98 28 20.98 27.75 22.73 26.29 32.29 26.22 32.29 26.49 22.8 26.51 20.98 28"/><path d="M24,27.31H23.9v-.15h.22A.38.38,0,0,0,24,27.31Z" transform="translate(1.05)"/><polygon points="20.58 29.86 20.59 29.85 20.59 29.87 20.58 29.86"/><polygon points="23.49 27.36 20.98 29.68 20.98 29.48 23.41 27.23 23.43 27.21 24.56 27.18 24.56 27.32 23.49 27.36"/><polygon points="24.95 27.31 24.56 27.32 24.56 27.18 24.95 27.16 24.95 27.31"/><polygon points="23.61 27.71 23.63 27.69 24.56 27.66 24.56 27.8 23.69 27.83 20.98 30.25 20.98 30.05 23.61 27.71"/><path d="M24.18,27.76v0H23.9v-.15H24A.35.35,0,0,0,24.18,27.76Z" transform="translate(1.05)"/><polygon points="24.95 27.64 24.95 27.79 24.56 27.8 24.56 27.66 24.95 27.64"/><polygon points="24.88 34.47 24.86 34.46 25.13 34.46 25.14 34.46 24.88 34.47"/><path d="M19.55,31.51v.13l0,0A.36.36,0,0,0,19.55,31.51Z" transform="translate(1.05)"/><polygon points="23.18 32.71 21.59 32.71 20.98 32.06 20.98 31.85 21.65 32.57 23.24 32.56 25.13 34.46 24.86 34.46 23.18 32.71"/><path d="M23.46,31.16a.36.36,0,0,1,.05-.18v.36A.36.36,0,0,1,23.46,31.16Z" transform="translate(1.05)"/><path d="M24.19,31.16a.37.37,0,0,1-.29.36V30.8A.37.37,0,0,1,24.19,31.16Z" transform="translate(1.05)"/><path d="M23.83,30.79h.07v.72h-.07a.37.37,0,0,1-.32-.18V31A.36.36,0,0,1,23.83,30.79Z" transform="translate(1.05)"/><circle cx="20.62" cy="40.24" r="0.3"/><circle cx="21.51" cy="40.24" r="0.3"/><circle cx="25.54" cy="40.24" r="0.3"/><circle cx="26.42" cy="40.24" r="0.3"/><circle cx="29.02" cy="40.24" r="0.3"/><path d="M24.17,27.15h-.06a.37.37,0,1,1,.23.65.36.36,0,0,1-.17,0v-.13H24a.35.35,0,0,1,0-.33h.17Z" transform="translate(1.05)"/><path d="M24.12,27.16h.06v.15H24A.38.38,0,0,1,24.12,27.16Z" transform="translate(1.05)"/><path d="M24.18,27.76a.35.35,0,0,1-.13-.12h.13Z" transform="translate(1.05)"/><path d="M27,28.22a2,2,0,1,0,2,2A2,2,0,0,0,27,28.22Zm0,.61a1.36,1.36,0,1,1-1.36,1.36A1.36,1.36,0,0,1,27,28.83Z" transform="translate(1.05)"/><polygon points="13.98 33.65 13.98 26.65 20.98 26.65 20.98 27.75 20.65 28.02 20.71 28.23 20.98 28 20.98 29.48 20.59 29.85 20.59 27.04 14.37 27.04 14.37 33.26 20.59 33.26 20.59 31.64 20.98 32.06 20.98 33.65 13.98 33.65"/><path d="M19.57,31.38a.37.37,0,0,0,0-.12V29.87l.09.09.3-.28V30l-.28.25.1.11.18-.16v1.6l-.37-.4A.37.37,0,0,0,19.57,31.38Z" transform="translate(1.05)"/><polygon points="20.65 28.02 20.98 27.75 20.98 28 20.71 28.23 20.65 28.02"/><polygon points="20.68 29.96 20.59 29.87 20.59 29.85 20.98 29.48 20.98 29.68 20.68 29.96"/><polygon points="20.7 30.3 20.98 30.05 20.98 30.25 20.8 30.41 20.7 30.3"/><path d="M19.55,31.51a.34.34,0,0,0,0-.07l.37.4v.22l-.39-.42Z" transform="translate(1.05)"/><path d="M19.45,31.32l-.11.1.16.17a.37.37,0,1,1,0-.33v.17Z" transform="translate(1.05)"/><path d="M19.34,31.42l.11-.1.1.11v.08a.36.36,0,0,1,0,.08Z" transform="translate(1.05)"/><path d="M19.55,31.26a.37.37,0,0,1,0,.12.37.37,0,0,1,0,.06l0,0Z" transform="translate(1.05)"/><path d="M19.56,31.44a.34.34,0,0,1,0,.07v-.08Z" transform="translate(1.05)"/><path d="M18.21,30.18a2,2,0,1,0-2,2A2,2,0,0,0,18.21,30.18Zm-.56,0a1.36,1.36,0,1,1-1.36-1.36A1.36,1.36,0,0,1,17.65,30.19Z" transform="translate(1.05)"/><polygon points="1.96 8.95 2.7 8.96 2.7 9.04 1.95 9.04 1.96 8.95"/><polygon points="9.3 9.01 9.3 8.8 10.04 8.64 10.04 8.68 9.84 9.01 9.3 9.01"/><path d="M3,34l3.78,0c.42.16.39.81.38,1H2.64C2.63,34.09,3,34,3,34Z" transform="translate(1.05)"/><path d="M2.7,35.32H6.05C4.84,35.54,3.06,35.8,2.7,35.32Z" transform="translate(1.05)"/><path d="M2.64,35H7.2v.05s-.49.12-1.15.25H2.7a.32.32,0,0,1-.06-.17C2.64,35.09,2.64,35,2.64,35Z" transform="translate(1.05)"/><polygon points="7.72 23.43 4.31 23.42 4.31 22.68 7.72 22.69 7.72 23.43"/><rect x="4.02" y="22.68" width="0.29" height="0.74"/><path d="M14,6.47l-.11,0-4.38,0L8.38,8.26l-8.45,0c-.56,0-.71.14-.76.19l-.11.11,0,.08L-1,35.74H11l0-11,4.17-.08V8.62C15.2,7.22,14.52,6.63,14,6.47Zm.59,17.67h-.16V18.39h0V24L11,24v.09h-.72l0,10.87H8.61v.18H8.49V35H7.2v.05s-.49.12-1.15.25c-1.21.24-3,.49-3.35,0a.32.32,0,0,1-.06-.17c0-.05,0-.1,0-.15H-.3L-.22,9H.91V9h.74V9l6.6,0V8.8L9,8.64v0l.95-1.52,3.9,0a1.4,1.4,0,0,1,.61,1.35v9.19h.16Z" transform="translate(1.05)"/><path d="M2.52,20.09V24.7h4.9V19.87h0A5,5,0,0,0,9,16.94L9,8.68,8.79,9H8.25l0,5A4,4,0,0,0,4.9,12.06,4,4,0,0,0,1.59,13.9L1.65,9H.91L.81,17A4.59,4.59,0,0,0,2.52,20.09Zm.55-.1h.19v.1Zm1.68.74h.1a4.32,4.32,0,0,0,1.82-.41V21.6H3.26V20.48A4.17,4.17,0,0,0,4.75,20.73ZM6.67,24H3.26v-.53H3v-.74h.29v-.34H6.67V24ZM1.58,15.09A3.53,3.53,0,0,1,4.9,12.56a3.55,3.55,0,0,1,3.37,2.68,3.92,3.92,0,0,1,.14,1,3.77,3.77,0,0,1-1.23,2.81A3.39,3.39,0,0,1,4.9,20a3.48,3.48,0,0,1-3-1.84,3.83,3.83,0,0,1-.3-3Z" transform="translate(1.05)"/><path d="M3.26,20.09,3.07,20h.19Z" transform="translate(1.05)"/><path d="M4.46,14.83,4,13.3a2.17,2.17,0,0,1,1.81-.05l-.5,1.59Z" transform="translate(1.05)"/><path d="M5.34,17.74l.47,1.53A2.18,2.18,0,0,1,4,19.32l.5-1.59Z" transform="translate(1.05)"/><path d="M7.79,15.38a2.17,2.17,0,0,1,.06,1.81l-1.59-.5v-.84Z" transform="translate(1.05)"/><path d="M3.48,16.72,2,17.19a2.18,2.18,0,0,1-.05-1.81l1.59.5Z" transform="translate(1.05)"/><circle cx="5.92" cy="16.32" r="1.12"/><path d="M13.67,11.91l-.57-.55.07-.1h0l.62.6,0,5.87h-.12Z" transform="translate(1.05)"/><path d="M12.08,12l.14,0,1.14,1.16,0,4.57h-.12l0-4.52Z" transform="translate(1.05)"/><path d="M11.62,12.09h.17L13,13.34l0,4.38H12.9l0-4.33Z" transform="translate(1.05)"/><path d="M12.7,13.47v4.26h-.12V13.52L11.08,12l.23.06Z" transform="translate(1.05)"/><path d="M9.79,19.15c0-.26.35-.27.48-.27v.51C10.12,19.41,9.79,19.4,9.79,19.15Z" transform="translate(1.05)"/><path d="M9.79,20.17c0-.26.35-.27.48-.27v.51C10.12,20.43,9.79,20.42,9.79,20.17Z" transform="translate(1.05)"/><path d="M9.79,21.15c0-.26.35-.27.48-.27v.52C10.12,21.41,9.79,21.4,9.79,21.15Z" transform="translate(1.05)"/><path d="M9.8,22.17h.1V22H9.82c.08-.16.34-.17.46-.17v.52C10.12,22.41,9.82,22.4,9.8,22.17Z" transform="translate(1.05)"/><path d="M9.81,23.21h.06v-.12H9.81c.06-.19.34-.2.47-.2v.52C10.13,23.41,9.85,23.4,9.81,23.21Z" transform="translate(1.05)"/><path d="M9.8,22.17H8.22v4.49h0v-.24H8.1V22H9.82a.23.23,0,0,0,0,.1S9.8,22.17,9.8,22.17Z" transform="translate(1.05)"/><path d="M9.9,22.17H9.8s0,0,0,0a.23.23,0,0,1,0-.1H9.9Z" transform="translate(1.05)"/><path d="M8.48,23.08H9.81a.15.15,0,0,0,0,.12H8.6V35H8.49V23.08Z" transform="translate(1.05)"/><rect x="9.53" y="35" width="0.12" height="0.18"/><path d="M9.86,23.21H9.81a.15.15,0,0,1,0-.12h.05Z" transform="translate(1.05)"/><path d="M8.1,26.67v-.24H1.42v6.9h6.8V26.67ZM8,33.08H1.67V26.67H4.06v-.13h.16v.13h.48v-.13h.15v.13h.51v-.13h.16v.13H8Z" transform="translate(1.05)"/><rect x="9.14" y="26.43" width="0.12" height="0.24"/><path d="M13.09,11.35l.08-.09a1.83,1.83,0,1,0-2.09.75l-.22-.23.09-.09.37.37.31,0-.14-.15.09-.09.22.23.3,0-.17-.17.09-.09.22.22a1.83,1.83,0,0,0,.88-.64Zm-.19-1A1.27,1.27,0,1,1,11.63,9,1.27,1.27,0,0,1,12.9,10.3Z" transform="translate(1.05)"/><path d="M13.09,11.35l.08-.09-.07.1Z" transform="translate(1.05)"/><path d="M11.91,11.86l.09-.09.22.22-.14,0Z" transform="translate(1.05)"/><path d="M11.62,12.09l-.14-.15.09-.09.22.23h-.17Z" transform="translate(1.05)"/><path d="M10.94,11.69l.37.37L11.08,12l-.22-.23Z" transform="translate(1.05)"/><path d="M10.28,23.4h.08l0-.5h-.06V22.4h.08l0-.5h-.06V21.4h.08l0-.5h-.06v-.47h.08l0-.5h-.06v-.5h.08l0-.5h-.06V17.73h2.29v.1h.12v-.1h.21v0H13v0h.23v.08h.12v-.08h.31v.1h.12v-.1h.64v.66H11V24h-.72v.08h0Z" transform="translate(1.05)"/><polygon points="15.66 17.73 15.66 24.13 15.5 24.13 15.5 18.39 15.5 18.39 15.5 17.73 15.66 17.73"/><polygon points="12.05 24.04 12.05 24.13 11.33 24.13 11.33 24.06 12.05 24.04"/><polygon points="14.73 17.83 14.73 17.73 14.86 17.73 14.86 17.83 14.73 17.83"/><rect x="13.25" y="17.73" width="0.12" height="0.08" transform="translate(0.93 0.09) rotate(-0.37)"/><rect x="12.9" y="17.73" width="0.12" height="0.02" transform="translate(0.83 0.16) rotate(-0.71)"/><rect x="13.62" y="17.73" width="0.12" height="0.1"/><path d="M10.36,19.39h-.08v-.51h.06Z" transform="translate(1.05)"/><path d="M10.36,20.41h-.08V19.9h.06Z" transform="translate(1.05)"/><path d="M10.36,21.39h-.08v-.52h.06Z" transform="translate(1.05)"/><path d="M10.36,22.39h-.08v-.52h.06Z" transform="translate(1.05)"/><path d="M10.36,23.39h-.08v-.52h.06Z" transform="translate(1.05)"/><path d="M4.06,27.49v-.12H2.33v5h5v-5H5.52v.12H5.36v-.12H4.85v.12H4.69v-.12H4.21v.12Zm-1,.62H6.61v3.47H3.08Z" transform="translate(1.05)"/><rect x="6.41" y="26.67" width="0.16" height="0.69"/><rect x="6.41" y="26.54" width="0.16" height="0.13"/><rect x="6.41" y="27.36" width="0.16" height="0.12"/><rect x="5.1" y="26.67" width="0.16" height="0.69"/><rect x="5.1" y="26.54" width="0.16" height="0.13"/><rect x="5.1" y="27.36" width="0.16" height="0.12"/><rect x="5.74" y="26.67" width="0.15" height="0.69"/><rect x="5.74" y="26.54" width="0.15" height="0.13"/><rect x="5.74" y="27.36" width="0.15" height="0.12"/><circle cx="12.98" cy="13.84" r="0.27"/><circle cx="12.98" cy="16.14" r="0.27"/><circle cx="12.98" cy="17.02" r="0.27"/><circle cx="10.46" cy="29.28" r="0.27"/><circle cx="10.46" cy="30.16" r="0.27"/><circle cx="1.55" cy="28.41" r="0.27"/><circle cx="1.55" cy="29.3" r="0.27"/><circle cx="1.57" cy="31.11" r="0.27"/></g><path d="M14.81,9.94c-.58-.14-1.14-.34-1.73-.54l-.19-.07c-.54-.19-1.1-.38-1.66-.56a7.24,7.24,0,0,0-1.69-.31A7.23,7.23,0,0,0,8,8.55a8.88,8.88,0,0,0-4,1.66,9.44,9.44,0,0,0-2.78,3.32A11.44,11.44,0,0,0,0,18.11a16.47,16.47,0,0,0,.08,3A19.71,19.71,0,0,0,.66,24a22.12,22.12,0,0,0,5,9.19,7.93,7.93,0,0,0,1.92,1.61,4.09,4.09,0,0,0,2.07.58,4.17,4.17,0,0,0,.75-.07,10.14,10.14,0,0,0,1.9-.56,11.88,11.88,0,0,1,1.84-.6A6.91,6.91,0,0,1,15.57,34a5.74,5.74,0,0,1,.64,0,8.13,8.13,0,0,1,2.14.56,10.82,10.82,0,0,0,2.28.68,4.46,4.46,0,0,0,2.64-.37,6.14,6.14,0,0,0,1.64-1.16A14.41,14.41,0,0,0,26.38,32a19.93,19.93,0,0,0,3-5.25l.2-.55.11-.29.08-.19-.13-.17a.41.41,0,0,0-.14-.13l-.08,0A7.55,7.55,0,0,1,27.22,24a6.78,6.78,0,0,1-2-3.33,7.94,7.94,0,0,1-.2-2.72,6.63,6.63,0,0,1,.56-2.15A6.92,6.92,0,0,1,27.8,13l.54-.38.26-.18.3-.21-.2-.31,0,0a8.16,8.16,0,0,0-4.5-3.14,11.71,11.71,0,0,0-1.86-.36,7.48,7.48,0,0,0-2.06,0A12.69,12.69,0,0,0,18.14,9l-.6.21-1.91.65A1.39,1.39,0,0,1,14.81,9.94Zm.84.69.2-.05.43-.15.93-.31.36-.12.21-.07.6-.21a12.13,12.13,0,0,1,1.8-.47l.2,0h.16a6.66,6.66,0,0,1,.84-.06c.2,0,.4,0,.61,0h.24l.48.07.36.06c.32.06.62.13.91.21s.27.1.4.15.39.13.57.21A7.35,7.35,0,0,1,27,11.18c.14.13.26.27.39.41s.31.32.45.49l-.5.35A8.57,8.57,0,0,0,26,13.65l-.17.19-.08.11,0,.06a7.18,7.18,0,0,0-.88,1.43,7.29,7.29,0,0,0-.53,1.83c0,.12,0,.23-.06.36s0,.14,0,.21a9,9,0,0,0,0,1.86,8.22,8.22,0,0,0,.2,1.12,7.35,7.35,0,0,0,.35,1,7.47,7.47,0,0,0,.85,1.46c.09.12.16.24.25.36a8.48,8.48,0,0,0,.64.68l.16.17c.18.17.38.3.57.45s.3.26.45.36a8.12,8.12,0,0,0,.93.54l.2.11-.1.27-.09.24v0l-.06.15c-.05.13-.11.26-.16.39q-.29.7-.65,1.39c-.09.18-.18.36-.28.53A21.12,21.12,0,0,1,26,31.22l-.24.33-.12.15a12.77,12.77,0,0,1-1.28,1.46l-.11.1c-.16.14-.31.27-.47.39l-.35.24-.16.09c-.12.07-.23.15-.35.2a3.69,3.69,0,0,1-2.19.31,10,10,0,0,1-2.12-.64c-.21-.08-.41-.14-.61-.2a8.65,8.65,0,0,0-1.62-.39l-.11,0a6.53,6.53,0,0,0-.72,0,7.22,7.22,0,0,0-.89.06c-.23,0-.47.06-.71.12a8.93,8.93,0,0,0-1,.27l-.82.3L12,34l-.54.19-.49.16c-.24.07-.49.13-.72.17h0a3.44,3.44,0,0,1-.59.06,3.15,3.15,0,0,1-1-.18l-.12,0a3.73,3.73,0,0,1-.54-.25,6.42,6.42,0,0,1-1.05-.78l-.27-.25-.41-.43-.27-.32c-.21-.24-.42-.49-.62-.74A21.5,21.5,0,0,1,3.1,28.14c-.13-.25-.26-.5-.38-.76s-.2-.46-.3-.69l-.11-.25a21.4,21.4,0,0,1-.91-2.69A18.92,18.92,0,0,1,.87,21,15.86,15.86,0,0,1,.8,18.16c0-.28.06-.55.09-.81a10.35,10.35,0,0,1,1-3.46c.14-.27.29-.53.45-.77a8.32,8.32,0,0,1,2.11-2.28A8.1,8.1,0,0,1,8.1,9.31l.15,0c.27,0,.52-.06.74-.07H9.5a6.19,6.19,0,0,1,.63.08,6.7,6.7,0,0,1,.66.15l.22.05c.55.17,1.1.36,1.63.55l.17.06h0l.6.2c.32.11.65.21,1,.3l.21.06a1.74,1.74,0,0,0,.42.05h.11A2.41,2.41,0,0,0,15.66,10.63Z" transform="translate(1.05)"/></svg>